<mxfile host="app.diagrams.net" modified="2023-02-04T09:46:52.558Z" agent="5.0 (Macintosh; Intel Mac OS X 10_15_7) AppleWebKit/537.36 (KHTML, like Gecko) Chrome/109.0.0.0 Safari/537.36" etag="ePZvzBQ2klnq5TLTAlha" version="20.8.16" type="github">
  <diagram name="第 1 页" id="y0Go7ssdU0CtU0V1f10J">
    <mxGraphModel dx="663" dy="-627" grid="0" gridSize="10" guides="1" tooltips="1" connect="1" arrows="1" fold="1" page="0" pageScale="1" pageWidth="827" pageHeight="1169" math="0" shadow="0">
      <root>
        <mxCell id="0" />
        <mxCell id="1" parent="0" />
        <mxCell id="sr5XxnYCMST1pJ13uV9J-78" value="" style="rounded=0;whiteSpace=wrap;html=1;labelBackgroundColor=none;fontSize=11;fontColor=#000000;" vertex="1" parent="1">
          <mxGeometry x="413" y="2528" width="551" height="546" as="geometry" />
        </mxCell>
        <mxCell id="sr5XxnYCMST1pJ13uV9J-1" value="" style="rounded=1;whiteSpace=wrap;html=1;strokeColor=default;fontSize=15;fontColor=#FF0000;fillColor=none;dashed=1;dashPattern=8 8;" vertex="1" parent="1">
          <mxGeometry x="851" y="1852" width="301" height="82" as="geometry" />
        </mxCell>
        <mxCell id="sr5XxnYCMST1pJ13uV9J-2" style="edgeStyle=orthogonalEdgeStyle;rounded=0;orthogonalLoop=1;jettySize=auto;html=1;exitX=1;exitY=0.5;exitDx=0;exitDy=0;strokeWidth=2;" edge="1" parent="1">
          <mxGeometry relative="1" as="geometry">
            <mxPoint x="839.458740234375" y="1659" as="targetPoint" />
            <mxPoint x="753" y="1659" as="sourcePoint" />
          </mxGeometry>
        </mxCell>
        <mxCell id="sr5XxnYCMST1pJ13uV9J-3" value="&lt;font style=&quot;font-size: 13px;&quot;&gt;请求日志&lt;/font&gt;" style="rounded=1;whiteSpace=wrap;html=1;fillColor=#d5e8d4;strokeColor=#82b366;" vertex="1" parent="1">
          <mxGeometry x="853" y="1512" width="98" height="48" as="geometry" />
        </mxCell>
        <mxCell id="sr5XxnYCMST1pJ13uV9J-4" value="曝光日志" style="rounded=1;whiteSpace=wrap;html=1;fillColor=#d5e8d4;strokeColor=#82b366;" vertex="1" parent="1">
          <mxGeometry x="853" y="1592" width="98" height="48" as="geometry" />
        </mxCell>
        <mxCell id="sr5XxnYCMST1pJ13uV9J-5" value="点击日志" style="rounded=1;whiteSpace=wrap;html=1;fillColor=#d5e8d4;strokeColor=#82b366;" vertex="1" parent="1">
          <mxGeometry x="853" y="1672" width="98" height="48" as="geometry" />
        </mxCell>
        <mxCell id="sr5XxnYCMST1pJ13uV9J-6" value="转化日志" style="rounded=1;whiteSpace=wrap;html=1;fillColor=#d5e8d4;strokeColor=#82b366;" vertex="1" parent="1">
          <mxGeometry x="853" y="1752" width="98" height="48" as="geometry" />
        </mxCell>
        <mxCell id="sr5XxnYCMST1pJ13uV9J-7" value="广告引擎" style="rounded=1;whiteSpace=wrap;html=1;fillColor=#ffe6cc;strokeColor=#d79b00;" vertex="1" parent="1">
          <mxGeometry x="629" y="1565" width="98" height="48" as="geometry" />
        </mxCell>
        <mxCell id="sr5XxnYCMST1pJ13uV9J-8" value="流量媒体" style="rounded=1;whiteSpace=wrap;html=1;fillColor=#ffe6cc;strokeColor=#d79b00;" vertex="1" parent="1">
          <mxGeometry x="629" y="1640" width="98" height="48" as="geometry" />
        </mxCell>
        <mxCell id="sr5XxnYCMST1pJ13uV9J-9" value="广告主" style="rounded=1;whiteSpace=wrap;html=1;fillColor=#ffe6cc;strokeColor=#d79b00;" vertex="1" parent="1">
          <mxGeometry x="629" y="1715" width="98" height="48" as="geometry" />
        </mxCell>
        <mxCell id="sr5XxnYCMST1pJ13uV9J-10" style="edgeStyle=orthogonalEdgeStyle;rounded=0;orthogonalLoop=1;jettySize=auto;html=1;exitX=1;exitY=0.5;exitDx=0;exitDy=0;strokeWidth=2;" edge="1" parent="1">
          <mxGeometry relative="1" as="geometry">
            <mxPoint x="1046.458740234375" y="1658.5" as="targetPoint" />
            <mxPoint x="960" y="1658.5" as="sourcePoint" />
          </mxGeometry>
        </mxCell>
        <mxCell id="sr5XxnYCMST1pJ13uV9J-11" value="日志关联" style="rounded=1;whiteSpace=wrap;html=1;fillColor=#dae8fc;strokeColor=#6c8ebf;" vertex="1" parent="1">
          <mxGeometry x="1054" y="1512" width="98" height="48" as="geometry" />
        </mxCell>
        <mxCell id="sr5XxnYCMST1pJ13uV9J-12" value="日志落地" style="rounded=1;whiteSpace=wrap;html=1;fillColor=#dae8fc;strokeColor=#6c8ebf;" vertex="1" parent="1">
          <mxGeometry x="1054" y="1592" width="98" height="48" as="geometry" />
        </mxCell>
        <mxCell id="sr5XxnYCMST1pJ13uV9J-13" value="日志合并" style="rounded=1;whiteSpace=wrap;html=1;fillColor=#dae8fc;strokeColor=#6c8ebf;" vertex="1" parent="1">
          <mxGeometry x="1054" y="1672" width="98" height="48" as="geometry" />
        </mxCell>
        <mxCell id="sr5XxnYCMST1pJ13uV9J-14" value="日志压缩" style="rounded=1;whiteSpace=wrap;html=1;fillColor=#dae8fc;strokeColor=#6c8ebf;" vertex="1" parent="1">
          <mxGeometry x="1054" y="1752" width="98" height="48" as="geometry" />
        </mxCell>
        <mxCell id="sr5XxnYCMST1pJ13uV9J-15" value="模型样本" style="rounded=1;whiteSpace=wrap;html=1;fillColor=#f5f5f5;strokeColor=#666666;fontColor=#333333;" vertex="1" parent="1">
          <mxGeometry x="1257" y="1475" width="98" height="48" as="geometry" />
        </mxCell>
        <mxCell id="sr5XxnYCMST1pJ13uV9J-16" value="投放报表" style="rounded=1;whiteSpace=wrap;html=1;fillColor=#f5f5f5;fontColor=#333333;strokeColor=#666666;" vertex="1" parent="1">
          <mxGeometry x="1257" y="1555" width="98" height="48" as="geometry" />
        </mxCell>
        <mxCell id="sr5XxnYCMST1pJ13uV9J-17" value="运营分析" style="rounded=1;whiteSpace=wrap;html=1;fillColor=#f5f5f5;fontColor=#333333;strokeColor=#666666;" vertex="1" parent="1">
          <mxGeometry x="1257" y="1635" width="98" height="48" as="geometry" />
        </mxCell>
        <mxCell id="sr5XxnYCMST1pJ13uV9J-18" value="机制策略" style="rounded=1;whiteSpace=wrap;html=1;fillColor=#f5f5f5;fontColor=#333333;strokeColor=#666666;" vertex="1" parent="1">
          <mxGeometry x="1257" y="1715" width="98" height="48" as="geometry" />
        </mxCell>
        <mxCell id="sr5XxnYCMST1pJ13uV9J-19" style="edgeStyle=orthogonalEdgeStyle;rounded=0;orthogonalLoop=1;jettySize=auto;html=1;exitX=1;exitY=0.5;exitDx=0;exitDy=0;strokeWidth=2;" edge="1" parent="1">
          <mxGeometry relative="1" as="geometry">
            <mxPoint x="1249.458740234375" y="1658.5" as="targetPoint" />
            <mxPoint x="1163" y="1658.5" as="sourcePoint" />
          </mxGeometry>
        </mxCell>
        <mxCell id="sr5XxnYCMST1pJ13uV9J-20" value="特征挖掘" style="rounded=1;whiteSpace=wrap;html=1;fillColor=#f5f5f5;fontColor=#333333;strokeColor=#666666;" vertex="1" parent="1">
          <mxGeometry x="1257" y="1795" width="98" height="48" as="geometry" />
        </mxCell>
        <mxCell id="sr5XxnYCMST1pJ13uV9J-21" value="" style="endArrow=none;dashed=1;html=1;rounded=1;strokeWidth=1;fontSize=13;fillColor=#b0e3e6;strokeColor=#0e8088;" edge="1" parent="1">
          <mxGeometry width="50" height="50" relative="1" as="geometry">
            <mxPoint x="793" y="1907" as="sourcePoint" />
            <mxPoint x="793" y="1503" as="targetPoint" />
          </mxGeometry>
        </mxCell>
        <mxCell id="sr5XxnYCMST1pJ13uV9J-22" value="" style="endArrow=none;dashed=1;html=1;rounded=1;strokeWidth=1;fontSize=13;fillColor=#b0e3e6;strokeColor=#0e8088;exitX=0.496;exitY=-0.135;exitDx=0;exitDy=0;exitPerimeter=0;" edge="1" parent="1" source="sr5XxnYCMST1pJ13uV9J-28">
          <mxGeometry width="50" height="50" relative="1" as="geometry">
            <mxPoint x="1002" y="1907" as="sourcePoint" />
            <mxPoint x="1002" y="1503" as="targetPoint" />
          </mxGeometry>
        </mxCell>
        <mxCell id="sr5XxnYCMST1pJ13uV9J-23" value="" style="endArrow=none;dashed=1;html=1;rounded=1;strokeWidth=1;fontSize=13;fillColor=#b0e3e6;strokeColor=#0e8088;" edge="1" parent="1">
          <mxGeometry width="50" height="50" relative="1" as="geometry">
            <mxPoint x="1204" y="1907" as="sourcePoint" />
            <mxPoint x="1204" y="1503" as="targetPoint" />
          </mxGeometry>
        </mxCell>
        <mxCell id="sr5XxnYCMST1pJ13uV9J-24" value="&lt;b&gt;&lt;font style=&quot;font-size: 15px;&quot;&gt;日志上报&lt;/font&gt;&lt;/b&gt;" style="text;html=1;align=center;verticalAlign=middle;resizable=0;points=[];autosize=1;strokeColor=none;fillColor=none;fontSize=13;" vertex="1" parent="1">
          <mxGeometry x="639" y="1867" width="78" height="30" as="geometry" />
        </mxCell>
        <mxCell id="sr5XxnYCMST1pJ13uV9J-25" value="&lt;b&gt;&lt;font style=&quot;font-size: 15px;&quot;&gt;日志接入&lt;/font&gt;&lt;/b&gt;" style="text;html=1;align=center;verticalAlign=middle;resizable=0;points=[];autosize=1;strokeColor=none;fillColor=none;fontSize=13;" vertex="1" parent="1">
          <mxGeometry x="863" y="1867" width="78" height="30" as="geometry" />
        </mxCell>
        <mxCell id="sr5XxnYCMST1pJ13uV9J-26" value="&lt;b&gt;&lt;font style=&quot;font-size: 15px;&quot;&gt;日志处理&lt;/font&gt;&lt;/b&gt;" style="text;html=1;align=center;verticalAlign=middle;resizable=0;points=[];autosize=1;strokeColor=none;fillColor=none;fontSize=13;" vertex="1" parent="1">
          <mxGeometry x="1064" y="1867" width="78" height="30" as="geometry" />
        </mxCell>
        <mxCell id="sr5XxnYCMST1pJ13uV9J-27" value="&lt;b&gt;&lt;font style=&quot;font-size: 15px;&quot;&gt;日志应用&lt;/font&gt;&lt;/b&gt;" style="text;html=1;align=center;verticalAlign=middle;resizable=0;points=[];autosize=1;strokeColor=none;fillColor=none;fontSize=13;" vertex="1" parent="1">
          <mxGeometry x="1267" y="1867" width="78" height="30" as="geometry" />
        </mxCell>
        <mxCell id="sr5XxnYCMST1pJ13uV9J-28" value="&lt;b&gt;&lt;font color=&quot;#ff0000&quot; style=&quot;font-size: 16px;&quot;&gt;日志平台&lt;/font&gt;&lt;/b&gt;" style="text;html=1;align=center;verticalAlign=middle;resizable=0;points=[];autosize=1;strokeColor=none;fillColor=none;fontSize=13;" vertex="1" parent="1">
          <mxGeometry x="960" y="1906" width="82" height="31" as="geometry" />
        </mxCell>
        <mxCell id="sr5XxnYCMST1pJ13uV9J-33" style="edgeStyle=orthogonalEdgeStyle;rounded=0;orthogonalLoop=1;jettySize=auto;html=1;exitX=1;exitY=0.5;exitDx=0;exitDy=0;" edge="1" parent="1" source="sr5XxnYCMST1pJ13uV9J-29" target="sr5XxnYCMST1pJ13uV9J-32">
          <mxGeometry relative="1" as="geometry" />
        </mxCell>
        <mxCell id="sr5XxnYCMST1pJ13uV9J-36" style="edgeStyle=orthogonalEdgeStyle;rounded=0;orthogonalLoop=1;jettySize=auto;html=1;exitX=0.5;exitY=1;exitDx=0;exitDy=0;entryX=0.5;entryY=0;entryDx=0;entryDy=0;fontSize=14;" edge="1" parent="1" source="sr5XxnYCMST1pJ13uV9J-29" target="sr5XxnYCMST1pJ13uV9J-35">
          <mxGeometry relative="1" as="geometry" />
        </mxCell>
        <mxCell id="sr5XxnYCMST1pJ13uV9J-37" value="&lt;font size=&quot;1&quot; style=&quot;&quot;&gt;&lt;b style=&quot;font-size: 11px; background-color: rgb(255, 229, 153);&quot;&gt;订阅落地&lt;/b&gt;&lt;/font&gt;" style="edgeLabel;html=1;align=center;verticalAlign=middle;resizable=0;points=[];fontSize=14;" vertex="1" connectable="0" parent="sr5XxnYCMST1pJ13uV9J-36">
          <mxGeometry x="-0.2353" y="-1" relative="1" as="geometry">
            <mxPoint as="offset" />
          </mxGeometry>
        </mxCell>
        <mxCell id="sr5XxnYCMST1pJ13uV9J-29" value="TDBank" style="rounded=1;whiteSpace=wrap;html=1;strokeColor=#82b366;fillColor=#d5e8d4;" vertex="1" parent="1">
          <mxGeometry x="736" y="2057" width="98" height="48" as="geometry" />
        </mxCell>
        <mxCell id="sr5XxnYCMST1pJ13uV9J-31" style="edgeStyle=orthogonalEdgeStyle;rounded=0;orthogonalLoop=1;jettySize=auto;html=1;exitX=1;exitY=0.5;exitDx=0;exitDy=0;" edge="1" parent="1" source="sr5XxnYCMST1pJ13uV9J-30" target="sr5XxnYCMST1pJ13uV9J-29">
          <mxGeometry relative="1" as="geometry" />
        </mxCell>
        <mxCell id="sr5XxnYCMST1pJ13uV9J-30" value="日志关联" style="rounded=1;whiteSpace=wrap;html=1;fillColor=#dae8fc;strokeColor=#6c8ebf;" vertex="1" parent="1">
          <mxGeometry x="574" y="2057" width="98" height="48" as="geometry" />
        </mxCell>
        <mxCell id="sr5XxnYCMST1pJ13uV9J-32" value="实时监控&lt;br&gt;新鲜度&lt;br&gt;预算" style="rounded=1;whiteSpace=wrap;html=1;fillColor=#dae8fc;strokeColor=#6c8ebf;" vertex="1" parent="1">
          <mxGeometry x="898" y="2057" width="98" height="48" as="geometry" />
        </mxCell>
        <mxCell id="sr5XxnYCMST1pJ13uV9J-34" value="&lt;b&gt;&lt;font style=&quot;font-size: 14px;&quot;&gt;实时&lt;/font&gt;&lt;/b&gt;" style="text;html=1;align=center;verticalAlign=middle;resizable=0;points=[];autosize=1;strokeColor=none;fillColor=none;" vertex="1" parent="1">
          <mxGeometry x="927" y="2023" width="46" height="29" as="geometry" />
        </mxCell>
        <mxCell id="sr5XxnYCMST1pJ13uV9J-40" style="edgeStyle=orthogonalEdgeStyle;rounded=0;orthogonalLoop=1;jettySize=auto;html=1;exitX=1;exitY=0.5;exitDx=0;exitDy=0;entryX=0;entryY=0.5;entryDx=0;entryDy=0;fontSize=11;" edge="1" parent="1" source="sr5XxnYCMST1pJ13uV9J-35" target="sr5XxnYCMST1pJ13uV9J-38">
          <mxGeometry relative="1" as="geometry" />
        </mxCell>
        <mxCell id="sr5XxnYCMST1pJ13uV9J-42" style="edgeStyle=orthogonalEdgeStyle;rounded=0;orthogonalLoop=1;jettySize=auto;html=1;exitX=0.5;exitY=1;exitDx=0;exitDy=0;entryX=0.5;entryY=0;entryDx=0;entryDy=0;fontSize=11;" edge="1" parent="1" source="sr5XxnYCMST1pJ13uV9J-35" target="sr5XxnYCMST1pJ13uV9J-41">
          <mxGeometry relative="1" as="geometry" />
        </mxCell>
        <mxCell id="sr5XxnYCMST1pJ13uV9J-43" value="&lt;b style=&quot;background-color: rgb(255, 229, 153);&quot;&gt;小时合并&lt;/b&gt;" style="edgeLabel;html=1;align=center;verticalAlign=middle;resizable=0;points=[];fontSize=11;" vertex="1" connectable="0" parent="sr5XxnYCMST1pJ13uV9J-42">
          <mxGeometry x="-0.121" y="-1" relative="1" as="geometry">
            <mxPoint as="offset" />
          </mxGeometry>
        </mxCell>
        <mxCell id="sr5XxnYCMST1pJ13uV9J-35" value="" style="shape=image;verticalLabelPosition=bottom;labelBackgroundColor=default;verticalAlign=top;aspect=fixed;imageAspect=0;image=https://www.nicepng.com/png/detail/502-5024580_business-data-storage-icon.png;" vertex="1" parent="1">
          <mxGeometry x="736" y="2172" width="99" height="51.02" as="geometry" />
        </mxCell>
        <mxCell id="sr5XxnYCMST1pJ13uV9J-38" value="实时报表/调价" style="rounded=1;whiteSpace=wrap;html=1;fillColor=#dae8fc;strokeColor=#6c8ebf;" vertex="1" parent="1">
          <mxGeometry x="898" y="2173" width="98" height="48" as="geometry" />
        </mxCell>
        <mxCell id="sr5XxnYCMST1pJ13uV9J-39" value="&lt;b&gt;&lt;font style=&quot;font-size: 14px;&quot;&gt;准实时&lt;/font&gt;&lt;/b&gt;" style="text;html=1;align=center;verticalAlign=middle;resizable=0;points=[];autosize=1;strokeColor=none;fillColor=none;" vertex="1" parent="1">
          <mxGeometry x="920" y="2143" width="60" height="29" as="geometry" />
        </mxCell>
        <mxCell id="sr5XxnYCMST1pJ13uV9J-46" style="edgeStyle=orthogonalEdgeStyle;rounded=0;orthogonalLoop=1;jettySize=auto;html=1;exitX=1;exitY=0.5;exitDx=0;exitDy=0;entryX=0;entryY=0.5;entryDx=0;entryDy=0;fontSize=11;fontColor=#000000;" edge="1" parent="1" source="sr5XxnYCMST1pJ13uV9J-41" target="sr5XxnYCMST1pJ13uV9J-44">
          <mxGeometry relative="1" as="geometry" />
        </mxCell>
        <mxCell id="sr5XxnYCMST1pJ13uV9J-51" style="edgeStyle=orthogonalEdgeStyle;rounded=0;orthogonalLoop=1;jettySize=auto;html=1;exitX=0.5;exitY=1;exitDx=0;exitDy=0;entryX=0.5;entryY=0;entryDx=0;entryDy=0;fontSize=11;fontColor=#000000;" edge="1" parent="1" source="sr5XxnYCMST1pJ13uV9J-41" target="sr5XxnYCMST1pJ13uV9J-48">
          <mxGeometry relative="1" as="geometry" />
        </mxCell>
        <mxCell id="sr5XxnYCMST1pJ13uV9J-52" value="&lt;b style=&quot;background-color: rgb(255, 229, 153);&quot;&gt;自研列存&lt;/b&gt;" style="edgeLabel;html=1;align=center;verticalAlign=middle;resizable=0;points=[];fontSize=11;fontColor=#000000;" vertex="1" connectable="0" parent="sr5XxnYCMST1pJ13uV9J-51">
          <mxGeometry x="-0.0613" y="-1" relative="1" as="geometry">
            <mxPoint as="offset" />
          </mxGeometry>
        </mxCell>
        <mxCell id="sr5XxnYCMST1pJ13uV9J-41" value="" style="shape=image;verticalLabelPosition=bottom;labelBackgroundColor=default;verticalAlign=top;aspect=fixed;imageAspect=0;image=https://www.nicepng.com/png/detail/502-5024580_business-data-storage-icon.png;" vertex="1" parent="1">
          <mxGeometry x="736" y="2290" width="99" height="51.02" as="geometry" />
        </mxCell>
        <mxCell id="sr5XxnYCMST1pJ13uV9J-44" value="运营分析&lt;br&gt;离线报表" style="rounded=1;whiteSpace=wrap;html=1;fillColor=#dae8fc;strokeColor=#6c8ebf;" vertex="1" parent="1">
          <mxGeometry x="898" y="2291" width="98" height="48" as="geometry" />
        </mxCell>
        <mxCell id="sr5XxnYCMST1pJ13uV9J-45" value="&lt;b&gt;&lt;font style=&quot;font-size: 14px;&quot;&gt;离线&lt;/font&gt;&lt;/b&gt;" style="text;html=1;align=center;verticalAlign=middle;resizable=0;points=[];autosize=1;strokeColor=none;fillColor=none;" vertex="1" parent="1">
          <mxGeometry x="927" y="2260" width="46" height="29" as="geometry" />
        </mxCell>
        <mxCell id="sr5XxnYCMST1pJ13uV9J-47" style="edgeStyle=orthogonalEdgeStyle;rounded=0;orthogonalLoop=1;jettySize=auto;html=1;exitX=1;exitY=0.5;exitDx=0;exitDy=0;entryX=0;entryY=0.5;entryDx=0;entryDy=0;fontSize=11;fontColor=#000000;" edge="1" parent="1" source="sr5XxnYCMST1pJ13uV9J-48" target="sr5XxnYCMST1pJ13uV9J-49">
          <mxGeometry relative="1" as="geometry" />
        </mxCell>
        <mxCell id="sr5XxnYCMST1pJ13uV9J-48" value="" style="shape=image;verticalLabelPosition=bottom;labelBackgroundColor=default;verticalAlign=top;aspect=fixed;imageAspect=0;image=https://www.nicepng.com/png/detail/502-5024580_business-data-storage-icon.png;" vertex="1" parent="1">
          <mxGeometry x="736" y="2408" width="99" height="51.02" as="geometry" />
        </mxCell>
        <mxCell id="sr5XxnYCMST1pJ13uV9J-49" value="长周期存储" style="rounded=1;whiteSpace=wrap;html=1;fillColor=#dae8fc;strokeColor=#6c8ebf;" vertex="1" parent="1">
          <mxGeometry x="895" y="2409" width="98" height="48" as="geometry" />
        </mxCell>
        <mxCell id="sr5XxnYCMST1pJ13uV9J-50" value="&lt;b&gt;&lt;font style=&quot;font-size: 14px;&quot;&gt;离线&lt;/font&gt;&lt;/b&gt;" style="text;html=1;align=center;verticalAlign=middle;resizable=0;points=[];autosize=1;strokeColor=none;fillColor=none;" vertex="1" parent="1">
          <mxGeometry x="924" y="2378" width="46" height="29" as="geometry" />
        </mxCell>
        <mxCell id="sr5XxnYCMST1pJ13uV9J-57" style="rounded=0;orthogonalLoop=1;jettySize=auto;html=1;exitX=0.5;exitY=1;exitDx=0;exitDy=0;entryX=0.5;entryY=0;entryDx=0;entryDy=0;fontSize=11;fontColor=#000000;strokeColor=default;jumpStyle=gap;" edge="1" parent="1" source="sr5XxnYCMST1pJ13uV9J-53" target="sr5XxnYCMST1pJ13uV9J-55">
          <mxGeometry relative="1" as="geometry" />
        </mxCell>
        <mxCell id="sr5XxnYCMST1pJ13uV9J-59" style="edgeStyle=none;rounded=0;jumpStyle=gap;orthogonalLoop=1;jettySize=auto;html=1;exitX=0.5;exitY=1;exitDx=0;exitDy=0;entryX=0.5;entryY=0;entryDx=0;entryDy=0;strokeColor=default;fontSize=11;fontColor=#000000;" edge="1" parent="1" source="sr5XxnYCMST1pJ13uV9J-53" target="sr5XxnYCMST1pJ13uV9J-56">
          <mxGeometry relative="1" as="geometry" />
        </mxCell>
        <mxCell id="sr5XxnYCMST1pJ13uV9J-60" style="edgeStyle=none;rounded=0;jumpStyle=gap;orthogonalLoop=1;jettySize=auto;html=1;exitX=0.5;exitY=1;exitDx=0;exitDy=0;entryX=0.5;entryY=0;entryDx=0;entryDy=0;strokeColor=default;fontSize=11;fontColor=#000000;" edge="1" parent="1" source="sr5XxnYCMST1pJ13uV9J-53" target="sr5XxnYCMST1pJ13uV9J-54">
          <mxGeometry relative="1" as="geometry" />
        </mxCell>
        <mxCell id="sr5XxnYCMST1pJ13uV9J-53" value="pageview" style="ellipse;whiteSpace=wrap;html=1;labelBackgroundColor=none;fontSize=11;fillColor=#f8cecc;strokeColor=#b85450;" vertex="1" parent="1">
          <mxGeometry x="651" y="2535" width="97" height="60" as="geometry" />
        </mxCell>
        <mxCell id="sr5XxnYCMST1pJ13uV9J-54" value="广告位" style="ellipse;whiteSpace=wrap;html=1;labelBackgroundColor=none;fontSize=11;fillColor=#fff2cc;strokeColor=#d6b656;" vertex="1" parent="1">
          <mxGeometry x="768" y="2645" width="97" height="60" as="geometry" />
        </mxCell>
        <mxCell id="sr5XxnYCMST1pJ13uV9J-64" style="edgeStyle=none;rounded=0;jumpStyle=gap;orthogonalLoop=1;jettySize=auto;html=1;exitX=0.5;exitY=1;exitDx=0;exitDy=0;entryX=0.5;entryY=0;entryDx=0;entryDy=0;strokeColor=default;fontSize=11;fontColor=#000000;" edge="1" parent="1" source="sr5XxnYCMST1pJ13uV9J-55" target="sr5XxnYCMST1pJ13uV9J-61">
          <mxGeometry relative="1" as="geometry" />
        </mxCell>
        <mxCell id="sr5XxnYCMST1pJ13uV9J-65" style="edgeStyle=none;rounded=0;jumpStyle=gap;orthogonalLoop=1;jettySize=auto;html=1;exitX=0.5;exitY=1;exitDx=0;exitDy=0;entryX=0.5;entryY=0;entryDx=0;entryDy=0;strokeColor=default;fontSize=11;fontColor=#000000;" edge="1" parent="1" source="sr5XxnYCMST1pJ13uV9J-55" target="sr5XxnYCMST1pJ13uV9J-62">
          <mxGeometry relative="1" as="geometry" />
        </mxCell>
        <mxCell id="sr5XxnYCMST1pJ13uV9J-66" style="edgeStyle=none;rounded=0;jumpStyle=gap;orthogonalLoop=1;jettySize=auto;html=1;exitX=0.5;exitY=1;exitDx=0;exitDy=0;entryX=0.5;entryY=0;entryDx=0;entryDy=0;strokeColor=default;fontSize=11;fontColor=#000000;" edge="1" parent="1" source="sr5XxnYCMST1pJ13uV9J-55" target="sr5XxnYCMST1pJ13uV9J-63">
          <mxGeometry relative="1" as="geometry" />
        </mxCell>
        <mxCell id="sr5XxnYCMST1pJ13uV9J-55" value="广告位" style="ellipse;whiteSpace=wrap;html=1;labelBackgroundColor=none;fontSize=11;fillColor=#fff2cc;strokeColor=#d6b656;" vertex="1" parent="1">
          <mxGeometry x="534" y="2645" width="97" height="60" as="geometry" />
        </mxCell>
        <mxCell id="sr5XxnYCMST1pJ13uV9J-56" value="广告位" style="ellipse;whiteSpace=wrap;html=1;labelBackgroundColor=none;fontSize=11;fillColor=#fff2cc;strokeColor=#d6b656;" vertex="1" parent="1">
          <mxGeometry x="651" y="2643" width="97" height="60" as="geometry" />
        </mxCell>
        <mxCell id="sr5XxnYCMST1pJ13uV9J-61" value="广告" style="ellipse;whiteSpace=wrap;html=1;labelBackgroundColor=none;fontSize=11;fillColor=#d5e8d4;strokeColor=#82b366;" vertex="1" parent="1">
          <mxGeometry x="420" y="2783" width="97" height="60" as="geometry" />
        </mxCell>
        <mxCell id="sr5XxnYCMST1pJ13uV9J-62" value="广告" style="ellipse;whiteSpace=wrap;html=1;labelBackgroundColor=none;fontSize=11;fillColor=#d5e8d4;strokeColor=#82b366;" vertex="1" parent="1">
          <mxGeometry x="534" y="2783" width="97" height="60" as="geometry" />
        </mxCell>
        <mxCell id="sr5XxnYCMST1pJ13uV9J-70" style="edgeStyle=none;rounded=0;jumpStyle=gap;orthogonalLoop=1;jettySize=auto;html=1;exitX=0.5;exitY=1;exitDx=0;exitDy=0;entryX=0.5;entryY=0;entryDx=0;entryDy=0;strokeColor=default;fontSize=11;fontColor=#000000;" edge="1" parent="1" source="sr5XxnYCMST1pJ13uV9J-63" target="sr5XxnYCMST1pJ13uV9J-67">
          <mxGeometry relative="1" as="geometry" />
        </mxCell>
        <mxCell id="sr5XxnYCMST1pJ13uV9J-71" style="edgeStyle=none;rounded=0;jumpStyle=gap;orthogonalLoop=1;jettySize=auto;html=1;exitX=0.5;exitY=1;exitDx=0;exitDy=0;entryX=0.5;entryY=0;entryDx=0;entryDy=0;strokeColor=default;fontSize=11;fontColor=#000000;" edge="1" parent="1" source="sr5XxnYCMST1pJ13uV9J-63" target="sr5XxnYCMST1pJ13uV9J-68">
          <mxGeometry relative="1" as="geometry" />
        </mxCell>
        <mxCell id="sr5XxnYCMST1pJ13uV9J-72" style="edgeStyle=none;rounded=0;jumpStyle=gap;orthogonalLoop=1;jettySize=auto;html=1;exitX=0.5;exitY=1;exitDx=0;exitDy=0;entryX=0.5;entryY=0;entryDx=0;entryDy=0;strokeColor=default;fontSize=11;fontColor=#000000;" edge="1" parent="1" source="sr5XxnYCMST1pJ13uV9J-63" target="sr5XxnYCMST1pJ13uV9J-69">
          <mxGeometry relative="1" as="geometry" />
        </mxCell>
        <mxCell id="sr5XxnYCMST1pJ13uV9J-63" value="广告" style="ellipse;whiteSpace=wrap;html=1;labelBackgroundColor=none;fontSize=11;fillColor=#d5e8d4;strokeColor=#82b366;" vertex="1" parent="1">
          <mxGeometry x="657" y="2783" width="97" height="60" as="geometry" />
        </mxCell>
        <mxCell id="sr5XxnYCMST1pJ13uV9J-67" value="曝光点击" style="ellipse;whiteSpace=wrap;html=1;labelBackgroundColor=none;fontSize=11;fillColor=#e1d5e7;strokeColor=#9673a6;" vertex="1" parent="1">
          <mxGeometry x="542" y="2897" width="97" height="60" as="geometry" />
        </mxCell>
        <mxCell id="sr5XxnYCMST1pJ13uV9J-68" value="曝光点击" style="ellipse;whiteSpace=wrap;html=1;labelBackgroundColor=none;fontSize=11;fillColor=#e1d5e7;strokeColor=#9673a6;" vertex="1" parent="1">
          <mxGeometry x="657" y="2897" width="97" height="60" as="geometry" />
        </mxCell>
        <mxCell id="sr5XxnYCMST1pJ13uV9J-75" style="edgeStyle=none;rounded=0;jumpStyle=gap;orthogonalLoop=1;jettySize=auto;html=1;exitX=0.5;exitY=1;exitDx=0;exitDy=0;entryX=0.5;entryY=0;entryDx=0;entryDy=0;strokeColor=default;fontSize=11;fontColor=#000000;" edge="1" parent="1" source="sr5XxnYCMST1pJ13uV9J-69" target="sr5XxnYCMST1pJ13uV9J-73">
          <mxGeometry relative="1" as="geometry" />
        </mxCell>
        <mxCell id="sr5XxnYCMST1pJ13uV9J-76" style="edgeStyle=none;rounded=0;jumpStyle=gap;orthogonalLoop=1;jettySize=auto;html=1;exitX=0.5;exitY=1;exitDx=0;exitDy=0;entryX=0.5;entryY=0;entryDx=0;entryDy=0;strokeColor=default;fontSize=11;fontColor=#000000;" edge="1" parent="1" source="sr5XxnYCMST1pJ13uV9J-69" target="sr5XxnYCMST1pJ13uV9J-74">
          <mxGeometry relative="1" as="geometry" />
        </mxCell>
        <mxCell id="sr5XxnYCMST1pJ13uV9J-69" value="曝光点击" style="ellipse;whiteSpace=wrap;html=1;labelBackgroundColor=none;fontSize=11;fillColor=#e1d5e7;strokeColor=#9673a6;" vertex="1" parent="1">
          <mxGeometry x="777" y="2897" width="97" height="60" as="geometry" />
        </mxCell>
        <mxCell id="sr5XxnYCMST1pJ13uV9J-73" value="转化" style="ellipse;whiteSpace=wrap;html=1;labelBackgroundColor=none;fontSize=11;fillColor=#fad7ac;strokeColor=#b46504;" vertex="1" parent="1">
          <mxGeometry x="727" y="3007" width="97" height="60" as="geometry" />
        </mxCell>
        <mxCell id="sr5XxnYCMST1pJ13uV9J-74" value="转化" style="ellipse;whiteSpace=wrap;html=1;labelBackgroundColor=none;fontSize=11;fillColor=#fad7ac;strokeColor=#b46504;" vertex="1" parent="1">
          <mxGeometry x="858" y="3007" width="97" height="60" as="geometry" />
        </mxCell>
        <mxCell id="sr5XxnYCMST1pJ13uV9J-79" value="&lt;h1 style=&quot;font-size: 14px;&quot;&gt;&lt;font style=&quot;font-size: 14px;&quot;&gt;message &lt;font color=&quot;#ff0000&quot;&gt;Pageview&lt;/font&gt;&lt;/font&gt;&lt;/h1&gt;&lt;p style=&quot;font-size: 14px;&quot;&gt;import advertisement.proto&lt;br&gt;import device.proto&lt;br&gt;&lt;span style=&quot;background-color: initial;&quot;&gt;import targeting.proto&lt;/span&gt;&lt;/p&gt;" style="text;html=1;strokeColor=none;fillColor=none;spacing=5;spacingTop=-20;whiteSpace=wrap;overflow=hidden;rounded=0;fontSize=11;fontColor=#000000;" vertex="1" parent="1">
          <mxGeometry x="412" y="2530" width="183" height="90" as="geometry" />
        </mxCell>
        <mxCell id="sr5XxnYCMST1pJ13uV9J-80" value="&lt;b&gt;&lt;font style=&quot;&quot;&gt;&lt;font style=&quot;font-size: 12px;&quot;&gt;recordio&lt;br&gt;分钟目录&lt;/font&gt;&lt;br&gt;&lt;/font&gt;&lt;/b&gt;" style="text;html=1;align=center;verticalAlign=middle;resizable=0;points=[];autosize=1;strokeColor=none;fillColor=none;" vertex="1" parent="1">
          <mxGeometry x="670" y="2177.5" width="66" height="41" as="geometry" />
        </mxCell>
        <mxCell id="sr5XxnYCMST1pJ13uV9J-81" value="&lt;b&gt;&lt;font style=&quot;&quot;&gt;&lt;font style=&quot;font-size: 12px;&quot;&gt;pblength&lt;br&gt;小时目录&lt;/font&gt;&lt;br&gt;&lt;/font&gt;&lt;/b&gt;" style="text;html=1;align=center;verticalAlign=middle;resizable=0;points=[];autosize=1;strokeColor=none;fillColor=none;" vertex="1" parent="1">
          <mxGeometry x="669" y="2298" width="69" height="41" as="geometry" />
        </mxCell>
        <mxCell id="sr5XxnYCMST1pJ13uV9J-82" value="&lt;b&gt;&lt;font style=&quot;&quot;&gt;&lt;font style=&quot;font-size: 12px;&quot;&gt;dragon&lt;br&gt;小时目录&lt;/font&gt;&lt;br&gt;&lt;/font&gt;&lt;/b&gt;" style="text;html=1;align=center;verticalAlign=middle;resizable=0;points=[];autosize=1;strokeColor=none;fillColor=none;" vertex="1" parent="1">
          <mxGeometry x="670" y="2413.01" width="66" height="41" as="geometry" />
        </mxCell>
        <mxCell id="sr5XxnYCMST1pJ13uV9J-84" style="edgeStyle=orthogonalEdgeStyle;rounded=0;orthogonalLoop=1;jettySize=auto;html=1;exitX=1;exitY=0.5;exitDx=0;exitDy=0;" edge="1" parent="1" source="sr5XxnYCMST1pJ13uV9J-87" target="sr5XxnYCMST1pJ13uV9J-90">
          <mxGeometry relative="1" as="geometry" />
        </mxCell>
        <mxCell id="sr5XxnYCMST1pJ13uV9J-85" style="edgeStyle=orthogonalEdgeStyle;rounded=0;orthogonalLoop=1;jettySize=auto;html=1;exitX=0.5;exitY=1;exitDx=0;exitDy=0;entryX=0.5;entryY=0;entryDx=0;entryDy=0;fontSize=14;" edge="1" parent="1" source="sr5XxnYCMST1pJ13uV9J-87" target="sr5XxnYCMST1pJ13uV9J-94">
          <mxGeometry relative="1" as="geometry" />
        </mxCell>
        <mxCell id="sr5XxnYCMST1pJ13uV9J-86" value="&lt;font size=&quot;1&quot; style=&quot;&quot;&gt;&lt;b style=&quot;font-size: 11px; background-color: rgb(255, 229, 153);&quot;&gt;订阅落地&lt;/b&gt;&lt;/font&gt;" style="edgeLabel;html=1;align=center;verticalAlign=middle;resizable=0;points=[];fontSize=14;" vertex="1" connectable="0" parent="sr5XxnYCMST1pJ13uV9J-85">
          <mxGeometry x="-0.2353" y="-1" relative="1" as="geometry">
            <mxPoint as="offset" />
          </mxGeometry>
        </mxCell>
        <mxCell id="sr5XxnYCMST1pJ13uV9J-87" value="TDBank" style="rounded=1;whiteSpace=wrap;html=1;strokeColor=#82b366;fillColor=#d5e8d4;" vertex="1" parent="1">
          <mxGeometry x="2190" y="1995" width="98" height="48" as="geometry" />
        </mxCell>
        <mxCell id="sr5XxnYCMST1pJ13uV9J-88" style="edgeStyle=orthogonalEdgeStyle;rounded=0;orthogonalLoop=1;jettySize=auto;html=1;exitX=1;exitY=0.5;exitDx=0;exitDy=0;" edge="1" parent="1" source="sr5XxnYCMST1pJ13uV9J-89" target="sr5XxnYCMST1pJ13uV9J-87">
          <mxGeometry relative="1" as="geometry" />
        </mxCell>
        <mxCell id="sr5XxnYCMST1pJ13uV9J-89" value="日志关联" style="rounded=1;whiteSpace=wrap;html=1;fillColor=#dae8fc;strokeColor=#6c8ebf;" vertex="1" parent="1">
          <mxGeometry x="2028" y="1995" width="98" height="48" as="geometry" />
        </mxCell>
        <mxCell id="sr5XxnYCMST1pJ13uV9J-90" value="实时监控&lt;br&gt;新鲜度&lt;br&gt;预算" style="rounded=1;whiteSpace=wrap;html=1;fillColor=#dae8fc;strokeColor=#6c8ebf;" vertex="1" parent="1">
          <mxGeometry x="2352" y="1995" width="98" height="48" as="geometry" />
        </mxCell>
        <mxCell id="sr5XxnYCMST1pJ13uV9J-91" style="edgeStyle=orthogonalEdgeStyle;rounded=0;orthogonalLoop=1;jettySize=auto;html=1;exitX=1;exitY=0.5;exitDx=0;exitDy=0;entryX=0;entryY=0.5;entryDx=0;entryDy=0;fontSize=11;" edge="1" parent="1" source="sr5XxnYCMST1pJ13uV9J-94" target="sr5XxnYCMST1pJ13uV9J-95">
          <mxGeometry relative="1" as="geometry" />
        </mxCell>
        <mxCell id="sr5XxnYCMST1pJ13uV9J-92" style="edgeStyle=orthogonalEdgeStyle;rounded=0;orthogonalLoop=1;jettySize=auto;html=1;exitX=0.5;exitY=1;exitDx=0;exitDy=0;entryX=0.5;entryY=0;entryDx=0;entryDy=0;fontSize=11;startArrow=none;" edge="1" parent="1" source="sr5XxnYCMST1pJ13uV9J-118" target="sr5XxnYCMST1pJ13uV9J-100">
          <mxGeometry relative="1" as="geometry" />
        </mxCell>
        <mxCell id="sr5XxnYCMST1pJ13uV9J-117" style="edgeStyle=orthogonalEdgeStyle;rounded=0;jumpStyle=gap;orthogonalLoop=1;jettySize=auto;html=1;exitX=1;exitY=0.5;exitDx=0;exitDy=0;entryX=0;entryY=0.5;entryDx=0;entryDy=0;strokeColor=#FF0000;fontSize=12;fontColor=#FF0000;" edge="1" parent="1" source="sr5XxnYCMST1pJ13uV9J-94" target="sr5XxnYCMST1pJ13uV9J-113">
          <mxGeometry relative="1" as="geometry" />
        </mxCell>
        <mxCell id="sr5XxnYCMST1pJ13uV9J-94" value="" style="shape=image;verticalLabelPosition=bottom;labelBackgroundColor=default;verticalAlign=top;aspect=fixed;imageAspect=0;image=https://www.nicepng.com/png/detail/502-5024580_business-data-storage-icon.png;" vertex="1" parent="1">
          <mxGeometry x="2190" y="2110" width="99" height="51.02" as="geometry" />
        </mxCell>
        <mxCell id="sr5XxnYCMST1pJ13uV9J-95" value="实时报表/调价" style="rounded=1;whiteSpace=wrap;html=1;fillColor=#dae8fc;strokeColor=#6c8ebf;" vertex="1" parent="1">
          <mxGeometry x="2352" y="2111" width="98" height="48" as="geometry" />
        </mxCell>
        <mxCell id="sr5XxnYCMST1pJ13uV9J-96" value="&lt;b&gt;&lt;font style=&quot;font-size: 14px;&quot;&gt;准实时&lt;/font&gt;&lt;/b&gt;" style="text;html=1;align=center;verticalAlign=middle;resizable=0;points=[];autosize=1;strokeColor=none;fillColor=none;" vertex="1" parent="1">
          <mxGeometry x="2374" y="2081" width="60" height="29" as="geometry" />
        </mxCell>
        <mxCell id="sr5XxnYCMST1pJ13uV9J-97" style="edgeStyle=orthogonalEdgeStyle;rounded=0;orthogonalLoop=1;jettySize=auto;html=1;exitX=1;exitY=0.5;exitDx=0;exitDy=0;entryX=0;entryY=0.5;entryDx=0;entryDy=0;fontSize=11;fontColor=#000000;startArrow=none;" edge="1" parent="1" source="sr5XxnYCMST1pJ13uV9J-124" target="sr5XxnYCMST1pJ13uV9J-101">
          <mxGeometry relative="1" as="geometry" />
        </mxCell>
        <mxCell id="sr5XxnYCMST1pJ13uV9J-98" style="edgeStyle=orthogonalEdgeStyle;rounded=0;orthogonalLoop=1;jettySize=auto;html=1;exitX=0.5;exitY=1;exitDx=0;exitDy=0;entryX=0.5;entryY=0;entryDx=0;entryDy=0;fontSize=11;fontColor=#000000;startArrow=none;" edge="1" parent="1" source="sr5XxnYCMST1pJ13uV9J-128" target="sr5XxnYCMST1pJ13uV9J-104">
          <mxGeometry relative="1" as="geometry" />
        </mxCell>
        <mxCell id="sr5XxnYCMST1pJ13uV9J-100" value="" style="shape=image;verticalLabelPosition=bottom;labelBackgroundColor=default;verticalAlign=top;aspect=fixed;imageAspect=0;image=https://www.nicepng.com/png/detail/502-5024580_business-data-storage-icon.png;" vertex="1" parent="1">
          <mxGeometry x="2190" y="2279" width="99" height="51.02" as="geometry" />
        </mxCell>
        <mxCell id="sr5XxnYCMST1pJ13uV9J-101" value="运营分析&lt;br&gt;离线报表" style="rounded=1;whiteSpace=wrap;html=1;fillColor=#dae8fc;strokeColor=#6c8ebf;" vertex="1" parent="1">
          <mxGeometry x="2352" y="2280" width="98" height="48" as="geometry" />
        </mxCell>
        <mxCell id="sr5XxnYCMST1pJ13uV9J-104" value="" style="shape=image;verticalLabelPosition=bottom;labelBackgroundColor=default;verticalAlign=top;aspect=fixed;imageAspect=0;image=https://www.nicepng.com/png/detail/502-5024580_business-data-storage-icon.png;" vertex="1" parent="1">
          <mxGeometry x="2190" y="2397" width="99" height="51.02" as="geometry" />
        </mxCell>
        <mxCell id="sr5XxnYCMST1pJ13uV9J-107" value="&lt;b&gt;&lt;font style=&quot;&quot;&gt;&lt;font style=&quot;font-size: 12px;&quot;&gt;recordio&lt;br&gt;分钟目录&lt;/font&gt;&lt;br&gt;&lt;/font&gt;&lt;/b&gt;" style="text;html=1;align=center;verticalAlign=middle;resizable=0;points=[];autosize=1;strokeColor=none;fillColor=none;" vertex="1" parent="1">
          <mxGeometry x="2124" y="2115.5" width="66" height="41" as="geometry" />
        </mxCell>
        <mxCell id="sr5XxnYCMST1pJ13uV9J-115" style="edgeStyle=orthogonalEdgeStyle;rounded=0;jumpStyle=gap;orthogonalLoop=1;jettySize=auto;html=1;exitX=0.5;exitY=1;exitDx=0;exitDy=0;entryX=1;entryY=0.5;entryDx=0;entryDy=0;strokeColor=#FF0000;fontSize=12;fontColor=#FF0000;" edge="1" parent="1" source="sr5XxnYCMST1pJ13uV9J-112" target="sr5XxnYCMST1pJ13uV9J-101">
          <mxGeometry relative="1" as="geometry" />
        </mxCell>
        <mxCell id="sr5XxnYCMST1pJ13uV9J-213" style="edgeStyle=orthogonalEdgeStyle;rounded=0;jumpStyle=gap;orthogonalLoop=1;jettySize=auto;html=1;exitX=1;exitY=0.5;exitDx=0;exitDy=0;strokeColor=#FF0000;fontSize=24;fontColor=#FF0000;" edge="1" parent="1" source="sr5XxnYCMST1pJ13uV9J-112">
          <mxGeometry relative="1" as="geometry">
            <mxPoint x="2705.8223876953125" y="2218" as="targetPoint" />
          </mxGeometry>
        </mxCell>
        <mxCell id="sr5XxnYCMST1pJ13uV9J-112" value="" style="shape=image;verticalLabelPosition=bottom;labelBackgroundColor=default;verticalAlign=top;aspect=fixed;imageAspect=0;image=https://www.apache.org/logos/res/iceberg/iceberg.png;" vertex="1" parent="1">
          <mxGeometry x="2513" y="2200.4100000000003" width="149.36" height="34.18" as="geometry" />
        </mxCell>
        <mxCell id="sr5XxnYCMST1pJ13uV9J-114" style="edgeStyle=none;rounded=0;jumpStyle=gap;orthogonalLoop=1;jettySize=auto;html=1;exitX=1;exitY=0.5;exitDx=0;exitDy=0;strokeColor=#FF0000;fontSize=12;fontColor=#FF0000;" edge="1" parent="1" source="sr5XxnYCMST1pJ13uV9J-113">
          <mxGeometry relative="1" as="geometry">
            <mxPoint x="2513" y="2218" as="targetPoint" />
          </mxGeometry>
        </mxCell>
        <mxCell id="sr5XxnYCMST1pJ13uV9J-113" value="小时 ETL" style="rounded=1;whiteSpace=wrap;html=1;fillColor=#dae8fc;strokeColor=#6c8ebf;" vertex="1" parent="1">
          <mxGeometry x="2352" y="2193.5" width="98" height="48" as="geometry" />
        </mxCell>
        <mxCell id="sr5XxnYCMST1pJ13uV9J-121" value="" style="edgeStyle=orthogonalEdgeStyle;rounded=0;orthogonalLoop=1;jettySize=auto;html=1;exitX=0.5;exitY=1;exitDx=0;exitDy=0;entryX=0.5;entryY=0;entryDx=0;entryDy=0;fontSize=11;endArrow=none;" edge="1" parent="1" source="sr5XxnYCMST1pJ13uV9J-94" target="sr5XxnYCMST1pJ13uV9J-118">
          <mxGeometry relative="1" as="geometry">
            <mxPoint x="2239.5" y="2161.02" as="sourcePoint" />
            <mxPoint x="2239.5" y="2279" as="targetPoint" />
          </mxGeometry>
        </mxCell>
        <mxCell id="sr5XxnYCMST1pJ13uV9J-118" value="&lt;font style=&quot;font-size: 15px;&quot;&gt;&lt;b&gt;X&lt;/b&gt;&lt;/font&gt;" style="text;html=1;align=center;verticalAlign=middle;resizable=0;points=[];autosize=1;strokeColor=none;fillColor=default;fontSize=12;fontColor=#FF0000;" vertex="1" parent="1">
          <mxGeometry x="2225.5" y="2198" width="28" height="30" as="geometry" />
        </mxCell>
        <mxCell id="sr5XxnYCMST1pJ13uV9J-123" value="&lt;font size=&quot;1&quot; style=&quot;&quot;&gt;&lt;b style=&quot;font-size: 24px;&quot;&gt;X&lt;/b&gt;&lt;/font&gt;" style="text;html=1;align=center;verticalAlign=middle;resizable=0;points=[];autosize=1;strokeColor=none;fillColor=none;fontSize=12;fontColor=#FF0000;" vertex="1" parent="1">
          <mxGeometry x="2222" y="2284.02" width="34" height="41" as="geometry" />
        </mxCell>
        <mxCell id="sr5XxnYCMST1pJ13uV9J-125" value="" style="edgeStyle=orthogonalEdgeStyle;rounded=0;orthogonalLoop=1;jettySize=auto;html=1;exitX=1;exitY=0.5;exitDx=0;exitDy=0;entryX=0;entryY=0.5;entryDx=0;entryDy=0;fontSize=11;fontColor=#000000;endArrow=none;" edge="1" parent="1" source="sr5XxnYCMST1pJ13uV9J-100" target="sr5XxnYCMST1pJ13uV9J-124">
          <mxGeometry relative="1" as="geometry">
            <mxPoint x="2289" y="2304.51" as="sourcePoint" />
            <mxPoint x="2352" y="2304" as="targetPoint" />
          </mxGeometry>
        </mxCell>
        <mxCell id="sr5XxnYCMST1pJ13uV9J-124" value="&lt;font style=&quot;font-size: 15px;&quot;&gt;&lt;b&gt;X&lt;/b&gt;&lt;/font&gt;" style="text;html=1;align=center;verticalAlign=middle;resizable=0;points=[];autosize=1;strokeColor=none;fillColor=default;fontSize=12;fontColor=#FF0000;" vertex="1" parent="1">
          <mxGeometry x="2303" y="2289" width="28" height="30" as="geometry" />
        </mxCell>
        <mxCell id="sr5XxnYCMST1pJ13uV9J-127" value="&lt;font size=&quot;1&quot; style=&quot;&quot;&gt;&lt;b style=&quot;font-size: 24px;&quot;&gt;X&lt;/b&gt;&lt;/font&gt;" style="text;html=1;align=center;verticalAlign=middle;resizable=0;points=[];autosize=1;strokeColor=none;fillColor=none;fontSize=12;fontColor=#FF0000;" vertex="1" parent="1">
          <mxGeometry x="2222.5" y="2402.02" width="34" height="41" as="geometry" />
        </mxCell>
        <mxCell id="sr5XxnYCMST1pJ13uV9J-129" value="" style="edgeStyle=orthogonalEdgeStyle;rounded=0;orthogonalLoop=1;jettySize=auto;html=1;exitX=0.5;exitY=1;exitDx=0;exitDy=0;entryX=0.5;entryY=0;entryDx=0;entryDy=0;fontSize=11;fontColor=#000000;endArrow=none;" edge="1" parent="1" source="sr5XxnYCMST1pJ13uV9J-100" target="sr5XxnYCMST1pJ13uV9J-128">
          <mxGeometry relative="1" as="geometry">
            <mxPoint x="2239.5" y="2330.02" as="sourcePoint" />
            <mxPoint x="2239.5" y="2397" as="targetPoint" />
          </mxGeometry>
        </mxCell>
        <mxCell id="sr5XxnYCMST1pJ13uV9J-128" value="&lt;font style=&quot;font-size: 15px;&quot;&gt;&lt;b&gt;X&lt;/b&gt;&lt;/font&gt;" style="text;html=1;align=center;verticalAlign=middle;resizable=0;points=[];autosize=1;strokeColor=none;fillColor=default;fontSize=12;fontColor=#FF0000;" vertex="1" parent="1">
          <mxGeometry x="2225" y="2346" width="28" height="30" as="geometry" />
        </mxCell>
        <mxCell id="sr5XxnYCMST1pJ13uV9J-130" value="&lt;b&gt;&lt;font style=&quot;&quot;&gt;&lt;font style=&quot;font-size: 12px;&quot;&gt;pblength&lt;br&gt;小时目录&lt;/font&gt;&lt;br&gt;&lt;/font&gt;&lt;/b&gt;" style="text;html=1;align=center;verticalAlign=middle;resizable=0;points=[];autosize=1;strokeColor=none;fillColor=none;" vertex="1" parent="1">
          <mxGeometry x="2121" y="2287" width="69" height="41" as="geometry" />
        </mxCell>
        <mxCell id="sr5XxnYCMST1pJ13uV9J-131" value="&lt;b&gt;&lt;font style=&quot;&quot;&gt;&lt;font style=&quot;font-size: 12px;&quot;&gt;dragon&lt;br&gt;小时目录&lt;/font&gt;&lt;br&gt;&lt;/font&gt;&lt;/b&gt;" style="text;html=1;align=center;verticalAlign=middle;resizable=0;points=[];autosize=1;strokeColor=none;fillColor=none;" vertex="1" parent="1">
          <mxGeometry x="2124" y="2402.01" width="66" height="41" as="geometry" />
        </mxCell>
        <mxCell id="sr5XxnYCMST1pJ13uV9J-134" style="rounded=0;orthogonalLoop=1;jettySize=auto;html=1;exitX=0.5;exitY=1;exitDx=0;exitDy=0;entryX=0.5;entryY=0;entryDx=0;entryDy=0;fontSize=11;fontColor=#000000;strokeColor=default;jumpStyle=gap;" edge="1" parent="1" source="sr5XxnYCMST1pJ13uV9J-137" target="sr5XxnYCMST1pJ13uV9J-142">
          <mxGeometry relative="1" as="geometry" />
        </mxCell>
        <mxCell id="sr5XxnYCMST1pJ13uV9J-135" style="edgeStyle=none;rounded=0;jumpStyle=gap;orthogonalLoop=1;jettySize=auto;html=1;exitX=0.5;exitY=1;exitDx=0;exitDy=0;entryX=0.5;entryY=0;entryDx=0;entryDy=0;strokeColor=default;fontSize=11;fontColor=#000000;" edge="1" parent="1" source="sr5XxnYCMST1pJ13uV9J-137">
          <mxGeometry relative="1" as="geometry">
            <mxPoint x="1302.5" y="2643" as="targetPoint" />
          </mxGeometry>
        </mxCell>
        <mxCell id="sr5XxnYCMST1pJ13uV9J-136" style="edgeStyle=none;rounded=0;jumpStyle=gap;orthogonalLoop=1;jettySize=auto;html=1;exitX=0.5;exitY=1;exitDx=0;exitDy=0;entryX=0.5;entryY=0;entryDx=0;entryDy=0;strokeColor=default;fontSize=11;fontColor=#000000;" edge="1" parent="1" source="sr5XxnYCMST1pJ13uV9J-137" target="sr5XxnYCMST1pJ13uV9J-138">
          <mxGeometry relative="1" as="geometry" />
        </mxCell>
        <mxCell id="sr5XxnYCMST1pJ13uV9J-159" style="rounded=0;jumpStyle=gap;orthogonalLoop=1;jettySize=auto;html=1;exitX=0.5;exitY=1;exitDx=0;exitDy=0;entryX=0.5;entryY=0;entryDx=0;entryDy=0;strokeColor=default;fontSize=24;fontColor=#FF0000;" edge="1" parent="1" source="sr5XxnYCMST1pJ13uV9J-137" target="sr5XxnYCMST1pJ13uV9J-145">
          <mxGeometry relative="1" as="geometry" />
        </mxCell>
        <mxCell id="sr5XxnYCMST1pJ13uV9J-163" style="edgeStyle=none;rounded=0;jumpStyle=gap;orthogonalLoop=1;jettySize=auto;html=1;exitX=0.5;exitY=1;exitDx=0;exitDy=0;entryX=0.5;entryY=0;entryDx=0;entryDy=0;strokeColor=default;fontSize=24;fontColor=#FF0000;" edge="1" parent="1" source="sr5XxnYCMST1pJ13uV9J-137" target="sr5XxnYCMST1pJ13uV9J-160">
          <mxGeometry relative="1" as="geometry" />
        </mxCell>
        <mxCell id="sr5XxnYCMST1pJ13uV9J-164" style="edgeStyle=none;rounded=0;jumpStyle=gap;orthogonalLoop=1;jettySize=auto;html=1;exitX=0.5;exitY=1;exitDx=0;exitDy=0;entryX=0.5;entryY=0;entryDx=0;entryDy=0;strokeColor=default;fontSize=24;fontColor=#FF0000;" edge="1" parent="1" source="sr5XxnYCMST1pJ13uV9J-137" target="sr5XxnYCMST1pJ13uV9J-161">
          <mxGeometry relative="1" as="geometry" />
        </mxCell>
        <mxCell id="sr5XxnYCMST1pJ13uV9J-165" style="edgeStyle=none;rounded=0;jumpStyle=gap;orthogonalLoop=1;jettySize=auto;html=1;exitX=0.5;exitY=1;exitDx=0;exitDy=0;entryX=0.5;entryY=0;entryDx=0;entryDy=0;strokeColor=default;fontSize=24;fontColor=#FF0000;" edge="1" parent="1" source="sr5XxnYCMST1pJ13uV9J-137" target="sr5XxnYCMST1pJ13uV9J-162">
          <mxGeometry relative="1" as="geometry" />
        </mxCell>
        <mxCell id="sr5XxnYCMST1pJ13uV9J-137" value="etlpageview" style="ellipse;whiteSpace=wrap;html=1;labelBackgroundColor=none;fontSize=11;fillColor=#f8cecc;strokeColor=#b85450;" vertex="1" parent="1">
          <mxGeometry x="1488" y="2535" width="97" height="60" as="geometry" />
        </mxCell>
        <mxCell id="sr5XxnYCMST1pJ13uV9J-138" value="引擎" style="ellipse;whiteSpace=wrap;html=1;labelBackgroundColor=none;fontSize=11;fillColor=#b1ddf0;strokeColor=#10739e;" vertex="1" parent="1">
          <mxGeometry x="1371" y="2645" width="97" height="60" as="geometry" />
        </mxCell>
        <mxCell id="sr5XxnYCMST1pJ13uV9J-142" value="流量广告位" style="ellipse;whiteSpace=wrap;html=1;labelBackgroundColor=none;fontSize=11;fillColor=#fff2cc;strokeColor=#d6b656;" vertex="1" parent="1">
          <mxGeometry x="1137" y="2645" width="97" height="60" as="geometry" />
        </mxCell>
        <mxCell id="sr5XxnYCMST1pJ13uV9J-145" value="人群" style="ellipse;whiteSpace=wrap;html=1;labelBackgroundColor=none;fontSize=11;fillColor=#ffe6cc;strokeColor=#d79b00;" vertex="1" parent="1">
          <mxGeometry x="1488" y="2645" width="97" height="60" as="geometry" />
        </mxCell>
        <mxCell id="sr5XxnYCMST1pJ13uV9J-158" value="广告" style="ellipse;whiteSpace=wrap;html=1;labelBackgroundColor=none;fontSize=11;fillColor=#d5e8d4;strokeColor=#82b366;" vertex="1" parent="1">
          <mxGeometry x="1254" y="2645" width="97" height="60" as="geometry" />
        </mxCell>
        <mxCell id="sr5XxnYCMST1pJ13uV9J-171" style="edgeStyle=none;rounded=0;jumpStyle=gap;orthogonalLoop=1;jettySize=auto;html=1;exitX=0.5;exitY=1;exitDx=0;exitDy=0;entryX=0.5;entryY=0;entryDx=0;entryDy=0;strokeColor=default;fontSize=24;fontColor=#FF0000;" edge="1" parent="1" source="sr5XxnYCMST1pJ13uV9J-160" target="sr5XxnYCMST1pJ13uV9J-170">
          <mxGeometry relative="1" as="geometry" />
        </mxCell>
        <mxCell id="sr5XxnYCMST1pJ13uV9J-172" style="edgeStyle=none;rounded=0;jumpStyle=gap;orthogonalLoop=1;jettySize=auto;html=1;exitX=0.5;exitY=1;exitDx=0;exitDy=0;entryX=0.5;entryY=0;entryDx=0;entryDy=0;strokeColor=default;fontSize=24;fontColor=#FF0000;" edge="1" parent="1" source="sr5XxnYCMST1pJ13uV9J-160" target="sr5XxnYCMST1pJ13uV9J-168">
          <mxGeometry relative="1" as="geometry" />
        </mxCell>
        <mxCell id="sr5XxnYCMST1pJ13uV9J-173" style="edgeStyle=none;rounded=0;jumpStyle=gap;orthogonalLoop=1;jettySize=auto;html=1;exitX=0.5;exitY=1;exitDx=0;exitDy=0;entryX=0.5;entryY=0;entryDx=0;entryDy=0;strokeColor=default;fontSize=24;fontColor=#FF0000;" edge="1" parent="1" source="sr5XxnYCMST1pJ13uV9J-160" target="sr5XxnYCMST1pJ13uV9J-167">
          <mxGeometry relative="1" as="geometry" />
        </mxCell>
        <mxCell id="sr5XxnYCMST1pJ13uV9J-174" style="edgeStyle=none;rounded=0;jumpStyle=gap;orthogonalLoop=1;jettySize=auto;html=1;exitX=0.5;exitY=1;exitDx=0;exitDy=0;entryX=0.5;entryY=0;entryDx=0;entryDy=0;strokeColor=default;fontSize=24;fontColor=#FF0000;" edge="1" parent="1" source="sr5XxnYCMST1pJ13uV9J-160" target="sr5XxnYCMST1pJ13uV9J-166">
          <mxGeometry relative="1" as="geometry" />
        </mxCell>
        <mxCell id="sr5XxnYCMST1pJ13uV9J-175" style="edgeStyle=none;rounded=0;jumpStyle=gap;orthogonalLoop=1;jettySize=auto;html=1;exitX=0.5;exitY=1;exitDx=0;exitDy=0;entryX=0.5;entryY=0;entryDx=0;entryDy=0;strokeColor=default;fontSize=24;fontColor=#FF0000;" edge="1" parent="1" source="sr5XxnYCMST1pJ13uV9J-160" target="sr5XxnYCMST1pJ13uV9J-169">
          <mxGeometry relative="1" as="geometry" />
        </mxCell>
        <mxCell id="sr5XxnYCMST1pJ13uV9J-160" value="行为" style="ellipse;whiteSpace=wrap;html=1;labelBackgroundColor=none;fontSize=11;fillColor=#f5f5f5;strokeColor=#666666;gradientColor=#b3b3b3;" vertex="1" parent="1">
          <mxGeometry x="1605" y="2643" width="97" height="60" as="geometry" />
        </mxCell>
        <mxCell id="sr5XxnYCMST1pJ13uV9J-161" value="实验" style="ellipse;whiteSpace=wrap;html=1;labelBackgroundColor=none;fontSize=11;fillColor=#d5e8d4;strokeColor=#82b366;gradientColor=#97d077;" vertex="1" parent="1">
          <mxGeometry x="1722" y="2643" width="97" height="60" as="geometry" />
        </mxCell>
        <mxCell id="sr5XxnYCMST1pJ13uV9J-162" value="指标" style="ellipse;whiteSpace=wrap;html=1;labelBackgroundColor=none;fontSize=11;fillColor=#fa6800;strokeColor=#C73500;fontColor=#000000;" vertex="1" parent="1">
          <mxGeometry x="1839" y="2643" width="97" height="60" as="geometry" />
        </mxCell>
        <mxCell id="sr5XxnYCMST1pJ13uV9J-166" value="转化" style="ellipse;whiteSpace=wrap;html=1;labelBackgroundColor=none;fontSize=11;fillColor=#fad7ac;strokeColor=#b46504;" vertex="1" parent="1">
          <mxGeometry x="1722" y="2749" width="97" height="60" as="geometry" />
        </mxCell>
        <mxCell id="sr5XxnYCMST1pJ13uV9J-167" value="点击" style="ellipse;whiteSpace=wrap;html=1;labelBackgroundColor=none;fontSize=11;fillColor=#76608a;strokeColor=#432D57;fontColor=#ffffff;" vertex="1" parent="1">
          <mxGeometry x="1605" y="2749" width="97" height="60" as="geometry" />
        </mxCell>
        <mxCell id="sr5XxnYCMST1pJ13uV9J-168" value="曝光" style="ellipse;whiteSpace=wrap;html=1;labelBackgroundColor=none;fontSize=11;fillColor=#647687;strokeColor=#314354;fontColor=#ffffff;" vertex="1" parent="1">
          <mxGeometry x="1488" y="2749" width="97" height="60" as="geometry" />
        </mxCell>
        <mxCell id="sr5XxnYCMST1pJ13uV9J-169" value="互动" style="ellipse;whiteSpace=wrap;html=1;labelBackgroundColor=none;fontSize=11;fillColor=#d5e8d4;strokeColor=#82b366;" vertex="1" parent="1">
          <mxGeometry x="1839" y="2749" width="97" height="60" as="geometry" />
        </mxCell>
        <mxCell id="sr5XxnYCMST1pJ13uV9J-170" value="请求" style="ellipse;whiteSpace=wrap;html=1;labelBackgroundColor=none;fontSize=11;fillColor=#d0cee2;strokeColor=#56517e;" vertex="1" parent="1">
          <mxGeometry x="1374" y="2749" width="97" height="60" as="geometry" />
        </mxCell>
        <mxCell id="sr5XxnYCMST1pJ13uV9J-176" style="edgeStyle=orthogonalEdgeStyle;rounded=0;orthogonalLoop=1;jettySize=auto;html=1;exitX=1;exitY=0.5;exitDx=0;exitDy=0;" edge="1" parent="1" source="sr5XxnYCMST1pJ13uV9J-179" target="sr5XxnYCMST1pJ13uV9J-182">
          <mxGeometry relative="1" as="geometry" />
        </mxCell>
        <mxCell id="sr5XxnYCMST1pJ13uV9J-177" style="edgeStyle=orthogonalEdgeStyle;rounded=0;orthogonalLoop=1;jettySize=auto;html=1;exitX=0.5;exitY=1;exitDx=0;exitDy=0;entryX=0.5;entryY=0;entryDx=0;entryDy=0;fontSize=14;" edge="1" parent="1" source="sr5XxnYCMST1pJ13uV9J-179" target="sr5XxnYCMST1pJ13uV9J-186">
          <mxGeometry relative="1" as="geometry" />
        </mxCell>
        <mxCell id="sr5XxnYCMST1pJ13uV9J-178" value="&lt;font size=&quot;1&quot; style=&quot;&quot;&gt;&lt;b style=&quot;font-size: 11px; background-color: rgb(255, 229, 153);&quot;&gt;订阅落地&lt;/b&gt;&lt;/font&gt;" style="edgeLabel;html=1;align=center;verticalAlign=middle;resizable=0;points=[];fontSize=14;" vertex="1" connectable="0" parent="sr5XxnYCMST1pJ13uV9J-177">
          <mxGeometry x="-0.2353" y="-1" relative="1" as="geometry">
            <mxPoint as="offset" />
          </mxGeometry>
        </mxCell>
        <mxCell id="sr5XxnYCMST1pJ13uV9J-179" value="TDBank" style="rounded=1;whiteSpace=wrap;html=1;strokeColor=#82b366;fillColor=#d5e8d4;" vertex="1" parent="1">
          <mxGeometry x="729" y="3158" width="98" height="48" as="geometry" />
        </mxCell>
        <mxCell id="sr5XxnYCMST1pJ13uV9J-180" style="edgeStyle=orthogonalEdgeStyle;rounded=0;orthogonalLoop=1;jettySize=auto;html=1;exitX=1;exitY=0.5;exitDx=0;exitDy=0;" edge="1" parent="1" source="sr5XxnYCMST1pJ13uV9J-181" target="sr5XxnYCMST1pJ13uV9J-179">
          <mxGeometry relative="1" as="geometry" />
        </mxCell>
        <mxCell id="sr5XxnYCMST1pJ13uV9J-181" value="日志关联" style="rounded=1;whiteSpace=wrap;html=1;fillColor=#dae8fc;strokeColor=#6c8ebf;" vertex="1" parent="1">
          <mxGeometry x="567" y="3158" width="98" height="48" as="geometry" />
        </mxCell>
        <mxCell id="sr5XxnYCMST1pJ13uV9J-182" value="实时监控&lt;br&gt;新鲜度&lt;br&gt;预算" style="rounded=1;whiteSpace=wrap;html=1;fillColor=#dae8fc;strokeColor=#6c8ebf;" vertex="1" parent="1">
          <mxGeometry x="891" y="3158" width="98" height="48" as="geometry" />
        </mxCell>
        <mxCell id="sr5XxnYCMST1pJ13uV9J-183" style="edgeStyle=orthogonalEdgeStyle;rounded=0;orthogonalLoop=1;jettySize=auto;html=1;exitX=1;exitY=0.5;exitDx=0;exitDy=0;entryX=0;entryY=0.5;entryDx=0;entryDy=0;fontSize=11;" edge="1" parent="1" source="sr5XxnYCMST1pJ13uV9J-186" target="sr5XxnYCMST1pJ13uV9J-187">
          <mxGeometry relative="1" as="geometry" />
        </mxCell>
        <mxCell id="sr5XxnYCMST1pJ13uV9J-184" style="edgeStyle=orthogonalEdgeStyle;rounded=0;orthogonalLoop=1;jettySize=auto;html=1;exitX=0.5;exitY=1;exitDx=0;exitDy=0;entryX=0.5;entryY=0;entryDx=0;entryDy=0;fontSize=11;" edge="1" parent="1" source="sr5XxnYCMST1pJ13uV9J-186" target="sr5XxnYCMST1pJ13uV9J-192">
          <mxGeometry relative="1" as="geometry" />
        </mxCell>
        <mxCell id="sr5XxnYCMST1pJ13uV9J-185" value="&lt;b style=&quot;background-color: rgb(255, 229, 153);&quot;&gt;小时合并&lt;/b&gt;" style="edgeLabel;html=1;align=center;verticalAlign=middle;resizable=0;points=[];fontSize=11;" vertex="1" connectable="0" parent="sr5XxnYCMST1pJ13uV9J-184">
          <mxGeometry x="-0.121" y="-1" relative="1" as="geometry">
            <mxPoint as="offset" />
          </mxGeometry>
        </mxCell>
        <mxCell id="sr5XxnYCMST1pJ13uV9J-205" style="edgeStyle=orthogonalEdgeStyle;rounded=0;jumpStyle=gap;orthogonalLoop=1;jettySize=auto;html=1;exitX=1;exitY=0.5;exitDx=0;exitDy=0;entryX=0;entryY=0.5;entryDx=0;entryDy=0;strokeColor=#FF0000;fontSize=24;fontColor=#FF0000;" edge="1" parent="1" source="sr5XxnYCMST1pJ13uV9J-186" target="sr5XxnYCMST1pJ13uV9J-204">
          <mxGeometry relative="1" as="geometry" />
        </mxCell>
        <mxCell id="sr5XxnYCMST1pJ13uV9J-186" value="" style="shape=image;verticalLabelPosition=bottom;labelBackgroundColor=default;verticalAlign=top;aspect=fixed;imageAspect=0;image=https://www.nicepng.com/png/detail/502-5024580_business-data-storage-icon.png;" vertex="1" parent="1">
          <mxGeometry x="729" y="3273" width="99" height="51.02" as="geometry" />
        </mxCell>
        <mxCell id="sr5XxnYCMST1pJ13uV9J-187" value="实时报表/调价" style="rounded=1;whiteSpace=wrap;html=1;fillColor=#dae8fc;strokeColor=#6c8ebf;" vertex="1" parent="1">
          <mxGeometry x="891" y="3274" width="98" height="48" as="geometry" />
        </mxCell>
        <mxCell id="sr5XxnYCMST1pJ13uV9J-188" value="&lt;b&gt;&lt;font style=&quot;font-size: 14px;&quot;&gt;准实时&lt;/font&gt;&lt;/b&gt;" style="text;html=1;align=center;verticalAlign=middle;resizable=0;points=[];autosize=1;strokeColor=none;fillColor=none;" vertex="1" parent="1">
          <mxGeometry x="913" y="3244" width="60" height="29" as="geometry" />
        </mxCell>
        <mxCell id="sr5XxnYCMST1pJ13uV9J-189" style="edgeStyle=orthogonalEdgeStyle;rounded=0;orthogonalLoop=1;jettySize=auto;html=1;exitX=1;exitY=0.5;exitDx=0;exitDy=0;entryX=0;entryY=0.5;entryDx=0;entryDy=0;fontSize=11;fontColor=#000000;" edge="1" parent="1" source="sr5XxnYCMST1pJ13uV9J-192" target="sr5XxnYCMST1pJ13uV9J-193">
          <mxGeometry relative="1" as="geometry" />
        </mxCell>
        <mxCell id="sr5XxnYCMST1pJ13uV9J-190" style="edgeStyle=orthogonalEdgeStyle;rounded=0;orthogonalLoop=1;jettySize=auto;html=1;exitX=0.5;exitY=1;exitDx=0;exitDy=0;entryX=0.5;entryY=0;entryDx=0;entryDy=0;fontSize=11;fontColor=#000000;" edge="1" parent="1" source="sr5XxnYCMST1pJ13uV9J-192" target="sr5XxnYCMST1pJ13uV9J-196">
          <mxGeometry relative="1" as="geometry" />
        </mxCell>
        <mxCell id="sr5XxnYCMST1pJ13uV9J-191" value="&lt;b style=&quot;background-color: rgb(255, 229, 153);&quot;&gt;自研列存&lt;/b&gt;" style="edgeLabel;html=1;align=center;verticalAlign=middle;resizable=0;points=[];fontSize=11;fontColor=#000000;" vertex="1" connectable="0" parent="sr5XxnYCMST1pJ13uV9J-190">
          <mxGeometry x="-0.0613" y="-1" relative="1" as="geometry">
            <mxPoint as="offset" />
          </mxGeometry>
        </mxCell>
        <mxCell id="sr5XxnYCMST1pJ13uV9J-192" value="" style="shape=image;verticalLabelPosition=bottom;labelBackgroundColor=default;verticalAlign=top;aspect=fixed;imageAspect=0;image=https://www.nicepng.com/png/detail/502-5024580_business-data-storage-icon.png;" vertex="1" parent="1">
          <mxGeometry x="729" y="3441" width="99" height="51.02" as="geometry" />
        </mxCell>
        <mxCell id="sr5XxnYCMST1pJ13uV9J-193" value="运营分析&lt;br&gt;离线报表" style="rounded=1;whiteSpace=wrap;html=1;fillColor=#dae8fc;strokeColor=#6c8ebf;" vertex="1" parent="1">
          <mxGeometry x="891" y="3442" width="98" height="48" as="geometry" />
        </mxCell>
        <mxCell id="sr5XxnYCMST1pJ13uV9J-195" style="edgeStyle=orthogonalEdgeStyle;rounded=0;orthogonalLoop=1;jettySize=auto;html=1;exitX=1;exitY=0.5;exitDx=0;exitDy=0;entryX=0;entryY=0.5;entryDx=0;entryDy=0;fontSize=11;fontColor=#000000;" edge="1" parent="1" source="sr5XxnYCMST1pJ13uV9J-196" target="sr5XxnYCMST1pJ13uV9J-197">
          <mxGeometry relative="1" as="geometry" />
        </mxCell>
        <mxCell id="sr5XxnYCMST1pJ13uV9J-196" value="" style="shape=image;verticalLabelPosition=bottom;labelBackgroundColor=default;verticalAlign=top;aspect=fixed;imageAspect=0;image=https://www.nicepng.com/png/detail/502-5024580_business-data-storage-icon.png;" vertex="1" parent="1">
          <mxGeometry x="729" y="3559" width="99" height="51.02" as="geometry" />
        </mxCell>
        <mxCell id="sr5XxnYCMST1pJ13uV9J-197" value="长周期存储" style="rounded=1;whiteSpace=wrap;html=1;fillColor=#dae8fc;strokeColor=#6c8ebf;" vertex="1" parent="1">
          <mxGeometry x="888" y="3560" width="98" height="48" as="geometry" />
        </mxCell>
        <mxCell id="sr5XxnYCMST1pJ13uV9J-199" value="&lt;b&gt;&lt;font style=&quot;&quot;&gt;&lt;font style=&quot;font-size: 12px;&quot;&gt;recordio&lt;br&gt;分钟目录&lt;/font&gt;&lt;br&gt;&lt;/font&gt;&lt;/b&gt;" style="text;html=1;align=center;verticalAlign=middle;resizable=0;points=[];autosize=1;strokeColor=none;fillColor=none;" vertex="1" parent="1">
          <mxGeometry x="663" y="3278.5" width="66" height="41" as="geometry" />
        </mxCell>
        <mxCell id="sr5XxnYCMST1pJ13uV9J-200" value="&lt;b&gt;&lt;font style=&quot;&quot;&gt;&lt;font style=&quot;font-size: 12px;&quot;&gt;pblength&lt;br&gt;小时目录&lt;/font&gt;&lt;br&gt;&lt;/font&gt;&lt;/b&gt;" style="text;html=1;align=center;verticalAlign=middle;resizable=0;points=[];autosize=1;strokeColor=none;fillColor=none;" vertex="1" parent="1">
          <mxGeometry x="662" y="3449" width="69" height="41" as="geometry" />
        </mxCell>
        <mxCell id="sr5XxnYCMST1pJ13uV9J-201" value="&lt;b&gt;&lt;font style=&quot;&quot;&gt;&lt;font style=&quot;font-size: 12px;&quot;&gt;dragon&lt;br&gt;小时目录&lt;/font&gt;&lt;br&gt;&lt;/font&gt;&lt;/b&gt;" style="text;html=1;align=center;verticalAlign=middle;resizable=0;points=[];autosize=1;strokeColor=none;fillColor=none;" vertex="1" parent="1">
          <mxGeometry x="663" y="3564.01" width="66" height="41" as="geometry" />
        </mxCell>
        <mxCell id="sr5XxnYCMST1pJ13uV9J-202" value="" style="shape=image;verticalLabelPosition=bottom;labelBackgroundColor=default;verticalAlign=top;aspect=fixed;imageAspect=0;image=https://www.apache.org/logos/res/iceberg/iceberg.png;" vertex="1" parent="1">
          <mxGeometry x="1051.6399999999999" y="3360.9100000000003" width="149.36" height="34.18" as="geometry" />
        </mxCell>
        <mxCell id="sr5XxnYCMST1pJ13uV9J-203" style="edgeStyle=none;rounded=0;jumpStyle=gap;orthogonalLoop=1;jettySize=auto;html=1;exitX=1;exitY=0.5;exitDx=0;exitDy=0;strokeColor=#FF0000;fontSize=12;fontColor=#FF0000;" edge="1" parent="1" source="sr5XxnYCMST1pJ13uV9J-204">
          <mxGeometry relative="1" as="geometry">
            <mxPoint x="1051.6399999999999" y="3378.5" as="targetPoint" />
          </mxGeometry>
        </mxCell>
        <mxCell id="sr5XxnYCMST1pJ13uV9J-204" value="小时 ETL" style="rounded=1;whiteSpace=wrap;html=1;fillColor=#dae8fc;strokeColor=#FF0000;" vertex="1" parent="1">
          <mxGeometry x="890.64" y="3354" width="98" height="48" as="geometry" />
        </mxCell>
        <mxCell id="sr5XxnYCMST1pJ13uV9J-206" value="" style="shape=image;verticalLabelPosition=bottom;labelBackgroundColor=default;verticalAlign=top;aspect=fixed;imageAspect=0;image=https://idex.woa.com/images/portal/logo.png;" vertex="1" parent="1">
          <mxGeometry x="2707.23" y="2153" width="93.54" height="27.98" as="geometry" />
        </mxCell>
        <mxCell id="sr5XxnYCMST1pJ13uV9J-207" value="" style="shape=image;verticalLabelPosition=bottom;labelBackgroundColor=default;verticalAlign=top;aspect=fixed;imageAspect=0;image=https://www.apache.org/logos/res/spark/spark.png;" vertex="1" parent="1">
          <mxGeometry x="2708.77" y="2193.73" width="92" height="47.77" as="geometry" />
        </mxCell>
        <mxCell id="sr5XxnYCMST1pJ13uV9J-208" value="" style="shape=image;verticalLabelPosition=bottom;labelBackgroundColor=default;verticalAlign=top;aspect=fixed;imageAspect=0;image=data:image/png,iVBORw0KGgoAAAANSUhEUgAAAiQAAACKCAYAAACaelHHAAAKqmlDQ1BJQ0MgUHJvZmlsZQAASImVlwdUU+kSgP9700NCSwgdQm+CdAJICaGFLh1shCRAKCEEQhM7iyu4FlREUBF0VUTBtQCyVkSxLQoKdhdkEVDWxYKoqLwLHIK777z3zptz5syXyfwz8//n/vfMBYAszxGJUmF5ANKEWeJQHw96dEwsHTcIICAHiIAK0BxupogZEhIAEJm1f5cPPUg0InfNp3L9+///VRR4/EwuAFAIwvG8TG4awqcQfckVibMAQO1D/Ho5WaIpbkOYKkYaRPjBFCfO8MgUx08zGkzHhIeyEKYCgCdxOOJEAEh0xE/P5iYieUjuCFsKeQIhwiKEXdPS0nkIH0fYGIlBfKSp/Iz47/Ik/i1nvDQnh5Mo5Zm9TAveU5ApSuXk/Z/H8b8lLVUyW8MQUVKS2DcUsYrImT1ISfeXsjA+KHiWBbzp+GlOkvhGzDI3kxU7yzyOp790bWpQwCwnCLzZ0jxZ7PBZ5md6hc2yOD1UWitBzGLOMkc8V1eSEiH1J/HZ0vz5SeFRs5wtiAya5cyUMP+5GJbUL5aESvvnC3085up6S/eelvndfgVs6dqspHBf6d45c/3zhcy5nJnR0t54fE+vuZgIabwoy0NaS5QaIo3np/pI/ZnZYdK1WcgDObc2RHqGyRy/kFkGLJAOUhEVAzoIQH55ApDFz82a2ggrXZQnFiQmZdGZyA3j09lCrsU8urWltQ0AU/d15nF4R5u+hxDtxpxvnQ4ALnmTk5Nn53z+dwA4eQ4A4qM5n9EAALI3ALi2kysRZ8/4pu8SBnkLyCHvAVWgBfSAMTAH1sAeOAN34AX8QDAIBzFgKeCCJJCGdJ4DCsAaUARKwBawA1SAKrAfHAbHwAnQBM6CS+AquAnugG7wGPSCAfAKjIIPYAKCIBxEhiiQKqQNGUBmkDXEgFwhLygACoVioDgoERJCEqgAWgeVQKVQBVQN1UK/QGegS9B1qBN6CPVBw9Bb6DOMgkkwFdaEDeH5MANmwv5wOLwEToQz4Hy4EN4El8M18FG4Eb4E34S74V74FTyGAigZFA2lgzJHMVAsVDAqFpWAEqNWoopRZagaVD2qBdWOuovqRY2gPqGxaAqajjZHO6N90RFoLjoDvRK9EV2BPoxuRLeh76L70KPobxgyRgNjhnHCsDHRmERMDqYIU4Y5iDmNuYLpxgxgPmCxWBrWCOuA9cXGYJOxy7EbsXuwDdiL2E5sP3YMh8Op4sxwLrhgHAeXhSvC7cIdxV3AdeEGcB/xMnhtvDXeGx+LF+LX4svwR/Dn8V34QfwEQZ5gQHAiBBN4hDzCZsIBQgvhNmGAMEFUIBoRXYjhxGTiGmI5sZ54hfiE+E5GRkZXxlFmoYxAZrVMucxxmWsyfTKfSIokUxKLtJgkIW0iHSJdJD0kvSOTyYZkd3IsOYu8iVxLvkx+Rv4oS5G1kGXL8mRXyVbKNsp2yb6WI8gZyDHllsrly5XJnZS7LTciT5A3lGfJc+RXylfKn5G/Lz+mQFGwUghWSFPYqHBE4brCkCJO0VDRS5GnWKi4X/GyYj8FRdGjsChcyjrKAcoVygAVSzWisqnJ1BLqMWoHdVRJUclWKVIpV6lS6ZxSLw1FM6Sxaam0zbQTtB7aZ2VNZaYyX3mDcr1yl/K4irqKuwpfpVilQaVb5bMqXdVLNUV1q2qT6lM1tJqp2kK1HLW9alfURtSp6s7qXPVi9RPqjzRgDVONUI3lGvs1bmmMaWpp+miKNHdpXtYc0aJpuWsla23XOq81rE3RdtUWaG/XvqD9kq5EZ9JT6eX0NvqojoaOr45Ep1qnQ2dC10g3QnetboPuUz2iHkMvQW+7XqveqL62fqB+gX6d/iMDggHDIMlgp0G7wbihkWGU4XrDJsMhIxUjtlG+UZ3RE2OysZtxhnGN8T0TrAnDJMVkj8kdU9jUzjTJtNL0thlsZm8mMNtj1jkPM89xnnBezbz75iRzpnm2eZ15nwXNIsBirUWTxev5+vNj52+d3z7/m6WdZarlAcvHVopWflZrrVqs3lqbWnOtK63v2ZBtvG1W2TTbvLE1s+Xb7rV9YEexC7Rbb9dq99XewV5sX28/7KDvEOew2+E+g8oIYWxkXHPEOHo4rnI86/jJyd4py+mE01/O5s4pzkechxYYLeAvOLCg30XXheNS7dLrSneNc93n2uum48Zxq3F77q7nznM/6D7INGEmM48yX3tYeog9TnuMs5xYK1gXPVGePp7Fnh1eil4RXhVez7x1vRO967xHfex8lvtc9MX4+vtu9b3P1mRz2bXsUT8HvxV+bf4k/zD/Cv/nAaYB4oCWQDjQL3Bb4JMggyBhUFMwCGYHbwt+GmIUkhHy60LswpCFlQtfhFqFFoS2h1HCloUdCfsQ7hG+OfxxhHGEJKI1Ui5ycWRt5HiUZ1RpVG/0/OgV0Tdj1GIEMc2xuNjI2IOxY4u8Fu1YNLDYbnHR4p4lRktyl1xfqrY0dem5ZXLLOMtOxmHiouKOxH3hBHNqOGPx7Pjd8aNcFncn9xXPnbedN8x34ZfyBxNcEkoThhJdErclDie5JZUljQhYggrBm2Tf5Krk8ZTglEMpk6lRqQ1p+LS4tDNCRWGKsC1dKz03vVNkJioS9WY4ZezIGBX7iw9mQplLMpuzqMhgdEtiLPlB0pftml2Z/TEnMudkrkKuMPdWnmnehrzBfO/8n5ejl3OXtxboFKwp6FvBXFG9EloZv7J1ld6qwlUDq31WH15DXJOy5re1lmtL175fF7WupVCzcHVh/w8+P9QVyRaJi+6vd15f9SP6R8GPHRtsNuza8K2YV3yjxLKkrOTLRu7GGz9Z/VT+0+SmhE0dm+03792C3SLc0rPVbevhUoXS/NL+bYHbGrfTtxdvf79j2Y7rZbZlVTuJOyU7e8sDypt36e/asutLRVJFd6VHZcNujd0bdo/v4e3p2uu+t75Ks6qk6vM+wb4H1T7VjTWGNWX7sfuz9784EHmg/WfGz7UH1Q6WHPx6SHio93Do4bZah9raIxpHNtfBdZK64aOLj9455nmsud68vrqB1lByHByXHH/5S9wvPSf8T7SeZJysP2VwavdpyuniRqgxr3G0KamptzmmufOM35nWFueW079a/HrorM7ZynNK5zafJ54vPD95If/C2EXRxZFLiZf6W5e1Pr4cffle28K2jiv+V65d9b56uZ3ZfuGay7Wz152un7nBuNF00/5m4y27W6d/s/vtdId9R+Nth9vNdxzvtHQu6Dzf5dZ16a7n3av32Pdudgd1d/ZE9Dy4v/h+7wPeg6GHqQ/fPMp+NPF49RPMk+Kn8k/Lnmk8q/nd5PeGXvvec32efbeehz1/3M/tf/VH5h9fBgpfkF+UDWoP1g5ZD50d9h6+83LRy4FXolcTI0V/Kvy5+7Xx61N/uf91azR6dOCN+M3k243vVN8dem/7vnUsZOzZh7QPE+PFH1U/Hv7E+NT+Oerz4ETOF9yX8q8mX1u++X97Mpk2OSniiDnTowAKUTghAYC3hwAgxwBAQWYI4qKZeXpaoJlvgGkC/4lnZu5psQegHjFTYxHrIgDHETVcjeRG7NRIFO4OYBsbqc7OvtNz+pRgkS+WfS5T1K3CWw3+ITMz/Hd9/9OCqay24J/2X87AB7Uhatf6AAAAbGVYSWZNTQAqAAAACAAEARoABQAAAAEAAAA+ARsABQAAAAEAAABGASgAAwAAAAEAAgAAh2kABAAAAAEAAABOAAAAAAAAAJAAAAABAAAAkAAAAAEAAqACAAQAAAABAAACJKADAAQAAAABAAAAigAAAACK50COAAAACXBIWXMAABYlAAAWJQFJUiTwAAA4cElEQVR4Ae2dB3wUxdvHH6mhJaTQQ+9duiCC9C5VQIqCIEhvgiJN6b13QXpRAUGa9CJVEESq0pEaIEDoEOCd3/4NbxJud2fvdu/2kuf5fAK3O7NTvrN3++zM8zzz1ishxMIEmAATYAJMgAkwAQ8SiOPBurlqJsAEmAATYAJMgAkoBFgh4RuBCTABJsAEmAAT8DgBVkg8PgTcACbABJgAE2ACTIAVEr4HmAATYAJMgAkwAY8TYIXE40PADWACTIAJMAEmwARYIeF7gAkwASbABJgAE/A4AVZIPD4E3AAmwASYABNgAkyAFRK+B5gAE2ACTIAJMAGPE2CFxONDwA1gAkyACTABJsAEWCHhe4AJMAEmwASYABPwOAFWSDw+BNwAJsAEmAATYAJMgBUSvgeYABNgAkyACTABjxNghcTjQ8ANYAJMgAkwASbABFgh4XuACTABJsAEmAAT8DiBeB5vgYcb8OjJSzpx4TGdvfKULl5/RpdvPqNroc/pdlg43X3wgh6K9CfPX9LLV/9raJy3iHzix6EkPnEoedK4FOgbj9IExKfgFAkoY+oElDVdQsqTKRElFuksTIAJMAEmwASYgByBt14JkcsaM3Jdu/Wc9hx/QAdOPKRDpx/RyctPLOlY7mAfKpw9MRXLk4RK5U1KaYLiW1IPF8oEmAATYAJMICYQiBUKyYnzT2jjgXu0+Y8wOnL+sUfGrWDmRFSxiC9VLuZHeTL7eKQNXCkTYAJMgAkwAbsSiLEKyZ37L2j59lBaueuux5QQtUGHclKndHKq/34A+SeLq5aNzzMBJsAEmAATiDUEYpxCcuzsI1q4MZQWbQv1ikFsWi6AmlUOoHxZE3tFe7mRTIAJMAEmwASsIBBjFJKDpx7S7LW3aM3+e1ZwsrzMmiX8qFWNICqaK4nldXEFTIAJMAEmwATsRsDrFZIzl5/SpGU3aMWeu3Zj61R76pVKTp0apKJswQmdup4vYgJMgAkwASbgjQS8WiEZtfg6TVwZ4o3cddvcuU5K6tkktW4+zsAEmAATYAJMICYQ8EqFZMvBMBqy8Bqdvvo0JoyBah+yp01IfZqloQpFfVXzcAITYAJMgAkwgZhAwOsUkm+/v0qzfr0VE9hL96F11SAa8Gla6fyckQkwASbABJiAtxHwGoUE3jNfzbxiOxdedw04XIWHt0nH3jjuAs71MAEmwASYgFsJeIVCsnzHHeo+9d/X4dvdSshGlSFs/dj26al+WX8btYqbwgSYABNgAkzAdQK2V0jG/3iDxggvGpb/J9BDeOF0bZjq/0/wJybABJgAE2ACLhB4+PAR3X/wULWEuHHjUIqgQNV0MxJsrZD0mXGF5m+5bUY/Y1wZH1cIpCFt08W4fnGHmAATYAJMwP0EylRtTNdv3FStOH1wGtqyeqFquhkJtt2StvP4S6yMaIwwFDUwYmECTIAJMAEm4CoBLWXE1bJlr48nm9Gd+dqNuei1EVfdyelnEQzu+YtXNK1HRndW61V1PXr0mM5duER3791XpiPDwu7TQ3EuaZLEFBCQnIIC/ck/uR8FBvgr57yqc9xYJhCDCWAj+stXrtP1kJsUdv8B3cefWFJ4+fKV8p3FdzdQfIcD/P2U43jxbPk4i8EjZH7XbDeCeOv31vDv5g+PfolgFV8wm9g1g37mWJAj9M5d2rxtNx06clz5u3DxsnSv8eNWrfL79H7pElSsSEFK5MPRcqXhcUYm4CIBKBqHxfd2x+79dPT43/Tn0ZMEuwZZefedIlS+bEkq/U5RypwpvexlnM9GBGxlQ8I2I87fGbHZpuT583DasmMPrVyzkbbu2Os8xGhX4sftw7rVqXyZkvTWW8LFiYUJMAHTCVy4dIVWr9tMP61cr2nDYKRi2DtUr1yOPm5Sl1IEBhi5NNbmzVGogmbf3WFDYhuFhL1pNO8FqcTY6H2za+9BGjhiEhmZCZGCGSlT/rw5qWeXNvROsbcjneWPTIAJuELgnlg+nTR9Ps1fssKVYnSv7fBZc2rRrD75+SbTzRubM7BC8t/oI85I1yn/xuZ7wbS+j+8QO+KUXL0eQoNHTKbN23ebxk6vIEwJ9+7ejnJkz6yXldOZABPQILB81a80eNQUQ0syGsXpJiURNmMd2wjFpGl9ihs3rm7+2JiBFRIx6ojAWuPrM7E+6JlZXwAET1s7NFuMjuj69+lz1OLznnQ71DM7PM+cOITef+8ds4aMy2ECsYbAi5cvaeioqbRg6c8e6TO+t+OG9SEoKCxRCdhBIfG42y/CwQtbJhaTCIAlmMZU+f2PI9S4ZRePKSPg2qZzH1r046qYipj7xQQsIfD02TPq0XuIx5QRdGr7b/uo2WfdKeQmx7eyZJBdLNSjCgk2yjty/rGLXeDLoxMAU7CNafLXsVPUrHV3t03zavH7dthEmjZrkVYWTmMCTOA/AnDh7S6UkXUbt3ucyfGTp6l24zaslHh8JN5sgMfcfrccDIt1u/a+id+6M9gRuXSBpFShqK91lbixZLj/des92KkaMT2bRbgBZsoQTBnTpyUfHx8xw3JHseg/d+FfwhKQM+KbLKkzl/E1TCDWEfhxxVratHWXU/2Gd0fmjOkpg/jupk6Zgp4+fUrXRETRa8KOzKhrcEQDkonvbvz4Hnv8RTSD/49GwGMjMmThtWhN4UOzCYBxTFFIho6eSv9eNnbPFC2cnz5v1ZTeK1lU020XwZfWbthKy3/ZIO2tM+CrztS0UW2zh4zLYwIxjgACE/YbPM5Qv/AS0VIYoDZpWFsJXqh2MVz+d+87KFz+N0nPvmTLkpHmzRytBFNTK5fPe4aAR9x+Ry2+ThNXhnimx7Gs1s51UlLPJqm9utewG8FSjayUebc4tf+sGRUumFf2EiUfppXXbtim/HhqBWQa3K87NaxXw1DZnJkJxFYCzYXNxv6DR6S6H+ENg+9XsqRJpK6JyAS7kG+HT9ScicmZPQvNmzFKRHdNHnEZ//8fgVhp1Hrm8lNWRtz4FYDiB+beLD/9vE66+fU+qELfTRpqWBlBBQh+VrNqedq0aj5Vq1TWYZ0jB33JyohDMnySCbxJ4LxYEpVVRnD1olnjqNXHDQ0rI7g2ZYpAmjLmW5owsr9DLxrEE1r43VhWRgDLpuJ2o9ZJy27YFEXMbZY3M78n9qBZtXaz1ODApQ+zF65GVcUeGeNH9KOmYro4sowb3pfq1Kwc+RR/ZgJMQIPAitUbNVKjJs2fOYby5MoW9aQTR3iZ+HHepChKydv589CcaSPJz4+DozmB1G2XuFUhOXjqIa0QG8KxuJcAmIO9N8rajdukmo23nwlCiTBrgy0oNX2/7Ei1a1RU6p88+huqUaWcVFs4ExNgAkTh4eG0bKXc7CZmNcyMhJw9ayZaIOxEILAlmzNtBLERuv3vSrcatc5ee8v2ROKKyGJ1301O1Uv4UUr/eBTgG498k8SlRAnjiDdvokdPXtL9Ry/o9r1wun7nOS3ffofWC48huwvYF81lbE3WDn364/AxqWYM6d+DEiXykcormylunDg07Jue1LHtx8I7J53sZZyPCTABQeDiv1el4gVVKl9adYnUFZD58uSkbesWK0s0vFGmKyTdd63bFBJEZLXzLr6tqwbRh+X8KVemRIRop2rilzQu4S84ZQIqKDJVKe5H4S9e0V+nH9PMNTdp7e/31C716Hmw7yDGIF9W74pQeOWa/hIfZkdy5chqCV/MuLAyYglaLjSGEwi5KfcC2qh+TctIpEuTyrKyuWDzCbhtyWbhxlDzW29CieUKJKO/ZuelAZ+mpTyZtZURterixX2LCudKTNO/yEhbRuegzEJZsaPYdQy0WF28dFkrWUnjMO66iDgDE3A7gRuS0VBLFMWrHQsTIHKLQnLn/gtatM1eCkmyRHHp54FZaX7fzOSfzLzNlnJk8KEdk3LR0Fb2m+LHGGAsvEVevBBLYxL71aROlcJbusTtZAKxhsANEbxMT+DmmzCBPV/g9NrO6eYTcItCsny7vZQRn3hv0bZxOSyzqYCtSfMqgTS9awbzR8zFEu02Flrduf9AzhCX14e1KHIaE/AMgdC7+svXRmONeKYnXKu7CLhFIVm5yz6eNVhe2TouJ6UKiG854xqlktPYduktr8dIBXYaC712+/gk1MuipN+6fUcqH2diAkzAfQSSJta3V7suMYvivhZzTZ4mYLlR64nzT2y1gd5P/bNQ+lT6U4Twpvnz9CPafvg+Xbn1TPw9p/hiZiU4RQLKEZyQKhTxpazpElJcoeBoCQxlT10QBq/r5Qy8tMoyIw0b72FM8mQ21yPFjLZFL8MnYUIlloBW1FRcc+qfs9Ev5WMmwAQ8TCAgQC4a6sV/r7DhuIfHyi7VW66QbDygP23nLhi5g32oaG5t19drQvH4Yuq/tPPYA8fN+i+ex9Al1wkuwn2apqaW1YMIMy9q8oUI3T57w2168fKVWha3nseYeINCAigpggJ0d/ddIfag+fqL9hxnwK13kbmVPX7ylG7euk03b4bSjZBbdOfePUqaJIky/oHiwRbg76e4b8aNa569l7k9+P/SsNQI26fQO3fptpi9w/+Ia+Of/H998Pf3pcAAf/Lz9Z4gXS/Fb9et26F0+ep1ZU+pBw8fEl4YMDY5RDj2tKlT/j+A/z6hjzLyiwh82OnzT2Syel0e2MFh/EPv3FPuCczm3n/wgJL7+VKqFEGUMmWguMcDiZed/ze0liskm/+wT4yO0e2DNW/oqStCaNjS65p5IidCwRi44BqNXxZCW4RNSmqVZSDEMIHigrx2EIxJ14be4Q6XSoSDvnBR39NmwtS51E8EMrOzHDl6ku7dV1F0/2t4yWKFTN2F9NCR4/RA7JSsJsnFQ7FAvlxqyarnHz9+QgcOH1VNR4JeX7DL8orVGwgPJBnjZRhAVhYxKyqULUWl3ikiFBb9JQHNBpqU+OLlSzp+4h/auecAbdi8U3r3aOyrUvH9d+ld0ZeC+XObOu4RXUOk4yPHT0UcOvy/WKH8qjF8jh7/m2bN+4HWb9rh8FqcROCxxbPHv5EOZUVGvl+4TNmyIbPYkTsmCGZ09+w/RFt27KENW37TfaFCn8EK217UrlGJcmTLrIoBG4ye1/E8LF6kgKIsqhZi4wRLN9fDbEPx9idt0f20QlnYPz23alvG/3iDxrgQ1j6hWM7ZMSEnpRNLOo7k2fNXlLWp9g+4o+usOvf71NyUJsh6OxpX2z955gKaOG2uVDF4y+okgpjZVWQ2Gdu7Zbny42RWH+o2+ZyOnzytWdyRvesMv6Fhj5IqdVtoltu7eztq2bxBlDzYnXX5ql/phxVrdNsV5UIHB4ii26VdSwpO55nNI6GULfxhFU2dtVDqoeOgC69PQdnq2r4lNapfw9SHyaE/j1Hjll1e1+Pow8olM94I2Y4NLfHd2/f7YUeXRDmHzSxnTR4W5RwOHj16TG+/KxdjBA/k5YumOZxpeaNgm56AsjB+6hxavX6LSy1EXKWPGtSiurUqC5OAqDOCcxYso2Fjp2mWv/PXpeSM52GM31xvz3Htt0FNqiYnvpc/qWqJN0Kfu6SMoOCn4a/oo2/Pkdgw1qEkiP8WZVBRVhxeYPFJO42NVlcrlXtXKzlK2qTp82juouVRzvGB5wg8evI4SuVQYhp+0pH6DxnnsjKCgrHHUfmaTWnMxFkUpjPzFKUhLh48e/acFv/0i1L3qAkzXVZG0By8VQ8ZNYXKVW+iKGyYdTFDoOjoyb2wqLPYmBHB7toyygjKTpI4kcMqEovzVSqUcZgW/SRmyKCwe6OB+r2w+4T7oEKtZi4rI+CCWamvvx1NH7XsSpcuX42OKkYfW+plc+CEnNumOwgXzKb+xRwt7EHMkPMhz2iDiIiqJlWK+qoluf28ncZGq/OY1k4fnEYrS5S0oaOnUq++wwkPPxb7EMCOzZhR0ZutcabFM+YsobLVPqIDh/5y5nJD1+C+qtmwNX0zdILUMpOhwkVmPJh7fzOKOvf8ljAD46okTuRYWYhc7r2w/704wt5h4IhJNHL8zMjJup+1lJ6qleQUElSCGYZ6TdspChn2wfEGwdLM+0KJ/G7uD6Y398+jJ6hireYEG7nYIpYqJIeEl4pdJIcwaFWTrX/eV0syfH6eMF5Vk1L51Gdp1K6x6rydxkavj60/aaSXJUr6yrWblIcfKyZRsHjsYNiYadRn4BhL68cMQ9NW3Wjdhu2W1bNz9+9Ur1l7KZsmVxuxaesuaiZmDGDo64okTar+IhZRbkS8ny/6DKOFS1dGnJb+P5GP+m9reWHvY2T5AG7AUMjK12xme8UEikKLz3uaMkOmBfurASOVGRitPDElzTKFBG6zJy+7ruGbBTrQT91+N0RslGeW7BLLVC/E3jaOJEkiy3A7qk7zHMYGY+QN0rBudcqbO7vhpkYoJp937Utrft2qadxpuHC+QIrAspXraY4wWnSXdP1qkGKEaXZ96EPrjr0tf/hEbjem7us36+DSMgaWTfTk2bNntHbDNuVPL6+jdK064D0yoHdnR5dpnotQTN6r0ojGTp5tO9d+2NdAUXCXYAbmJ/Fdiumi/pR2secnROwNO8nd+1A6HAfagjuwmcpT0TYnKYEwco0uoUobop/13DHGyBt2AIZh18A+3cSPc3unYG3dsZfwB6le+X2qUaUclS5VzLAhp1OVx+KLdu/7gw4ecr8hN5Yc4EoJo1czBMosZnmMCpYysgjPEbiuw232dugdOieWfPTi6kSuBw/mL/uPoO8mDaM4Wrt+Rr4o0meZsOzXrofQaGGH46yo2ZBElAevKHgTbd6+O+KU9P9Ywpo+e7HylyljMNURXihYBsqSKYN0GWZnXLJstbShvZl19xF2JfDIislimUJy9spTW3G7dPOZagyS7sIF9rOxF01r7y2bKR5qHcMYeYNCgvbD8nzssD7UvfcQte5InV+3cTvhDwIrdign7whX2wQJ7O9xpDTai/6RUUYwnQ9Xx5LFC1FK4eId4SqKBxEMHOElAoXgzDlj38+efYcps2rZsmR0iRhsXozec53btaCywvMkj5jVixsn6qwoFJOTf5+hbb/tk36o/SbciWfP/5E+a2Fs6VK24zPnLJXKCgUrU4Z0ih0Q7Lpg8wFJkkR/Fmbk4K8Uo1VXbIjg/g8vFvzBtqxOzUrCDfw9QzZmUh3VyIT2DxjypouzxiVKEu7DD6pXpEIF81JQoL8SV+eV8IDAfY64O3t/P6TYiuBYS6Dkx2SxTCG5eP2Zrbidv6quIFUu4Ud50/vQ8X/ts8TkDnh2GyO9PtesWl7xpoBBoRny8+qNhD/80KLs6pXLUvEiBd9wtTOjLi4jKgEswfX5ogMVKZRPCRoWNZWUIGL4EX+n2NvU/rNm9M+Z88pb/HbxIJeV9t370yrh0pookbqNg1ZZeDi069ZPK0uUNMy+IUAfFCs1wSwH+o6/WtXKU88+wwnGi3oCL473ShWlXDmy6mV9Ix33t5FZmcgFoJ0NalejSiL+S/R+wRMoVMz6+GjYkESUhZgx308dQY1adDbFBgcxbEaMm6H84WWlbs3KShtTpQyKqNL0/+HJ1bnXt4bKhUt0r65tVGOLBPgnp+xZM1HpkkWpR6fPaP/BwzRoxGTDCrihRtk4c1T13cSGXhYzEnaSZTvU9zvBTOiq4dkpVzrnfrjs1E8jbbHbGMm0vcmHH9Dc6aNMfSvCj/UPy9fQJ217UunKDRV3UrPcLmX6FNvyYPlt2cKpSkAtRDCVEQSLmjlxCE0dO1BRIGWuwRv11FmLZLI6zIP4NzJ7rWC2AA/b8SP6vfHQdljwfyczpk9HS+aMp+4dW2lle5024/slrz+74wNiyCxbMIWaNqrtsF+Y/cHSmOwGeYhUu1yMe/PGdU1tPmxt4B0EexMYsl8R0WStEARfjJgV0isfSuDEUQOU+Cxagc4ilwNltWTxwrT6x+9sH+QxcrvN/GyZQnJNxPawk1y+/Zy0ZkkSijghG8fmoEEt02qGgbdTn1xti93GSLY/pUoUpjU/zaYOnzWXvUQ6H96KMd1fp3FbZRpV+kLOqEsAP9JL50ygxg1qvrGUoXvxfxkqirg0eEhGLO3oXTfj+8WEaKVGBfurwFZAT6CMrFo6U3nD1cvrKB32UZ+3akKD+3V3lBzlHAxP3RWXYtTg3oTAdtEDc0VpkBMHUF4QUfmn+ZOVZRcnitC8BIbs5Wr8LzYN4oOYJSE3b9OCpT9LFRdxn1etKO/yHLlgMIfShhev2CaWKSS3w2BEai+ZuDxEs0F4WWtRLYhOL8xH33+RiQpnTayZ39sT7ThGskxhvd+lfQuhmMyiwm/nk71MOh+mhDFj0qZzH2W5QPpCzqhKYMn3400Zq6yZM9DSuROlZ0oW/GDclXWa5MwKZmzMCGFfv3ZVKU+yeYtWqPI1IwEP0xWLpppmEKzWJoTK/3nxNPqyW1u1LC6dR2waxAeBGzMC2bkq8xYvlyoC/KAww8bFVcGLFxS32CSWKSR3H7ywHcdlv92hPUf1o8dio7xKxX1p1bBsdG5xflo/LDv1bpya3s6sb7xlu05rNMiOY6TRXIdJmA7FPhp4MMCS32yBzULND1srrocwQmNxjsC44X2dsn9Qqw3LHaOEoaSMwCBUaz+f6GVcuHRFKhjVkAFfmPLgQf14K+73ZafoTXnjGG/pCL9vlXwlFIR8eXJaVXyUcuPFi0etPm5I29YtVjbXMxKvJEpBKgdYisVSTrX6Lens+UsqufRP37l7Tzrw2aC+3QgKs1kCxW1I/x5mFWf7cixTSB7aNMZFkyHn6dZd+S90fOG+my9rImpfLyWtHpGdLv5QgLAPzKwvMlKjsv6EPWy8Vew6RkZ5Yu0VU/lTxw0k7AWDuAcwdDNT4HoIY1q2LTFONcKbyfiV2ldAAYUbqJ7gwQRPFVnZKDZE0xO4FH9Yp5peNkPphYUHhkx/jp/6x1C5spmhENStVUU2u2n50qVJpexBtX3dEuXlolH9mqaVjYJg99GgeQc6ceqMU+Vu2ylnSI0w+TCON1s+FHGYZEPwm123u8uzTCF58tyeQbewQ2/F7n/TmcvqXjdagwADWGxKV6W4H43ukJ5OL8pPeyblUmxPsqR2vLGeVnmeTLPrGLnCBLYFTRvWVozn1q+YQ3DBRPwCMwQ2BV+LKJIsxgj06NTa2AUGcstuW48Q37Kydede3awdLdrEEd4seiLjTq1XhqN0bEzpSfd3vFhg52DMMmDDRxiFVqtU1lFTDZ+DUtq0dTenlBJZV9vO7T4x3C7ZC3p2/Uw2q1fns0whEc9928ptsZxUTiglc9bdcrmNsDtJnyqBYnuyY2Iu2jomB5UvkMzlct1RgJ3HyIz+Y+q0Y5vmtHHlPMVy3QzlBG7C2K2WRY4AvKKiu4vKXSmXC0alMkt1m7ftkioQhpCIfaIlJYoWJCwZWSEycVP2HfjT9KoxO1JHuM7aRWAjBqPQCSP70+Fdq5X/XVVOoJQgku/jJ/Ivo5gRlVFQEbAM7rtWSYbgtFKzZ1bV765yLVNIMJNgd+k/9yqV7niKth++r7pLr9E+ZBfxTOb1zUwHpue2vRuxN4yRUf5q+WFkFlk5aVivhlpW3fPYa+PyFWtcC3Ur97IMzT8y18XTUfcb1qvu6HSUc/CeOnfhUpRzjg72HTjs6HSUc+XLlIpybOZBhvRpdYvDnjpmSzURgyd+fMvCUrnUXBiKQhmJUE5GDvrS6VlPuIJjd2hZQRA7KDJ64srviV7ZEekfN7H+uxRRl6f+t+wO9Ikfhx49s+eyTWTYF8UOvc2HnSf/JHHp62ZpqEIRX0qR3HUsqQPi0wbhRjxs/jWavvZm5Cpt8xljFBsFygncLOE2PHfRMqf2Whk8ajJNHz84NuKT7jPeus008FOrWNbL6vTZC7ohx/85c0Gtmtfn8eCWjUfx+iIDH7DsqBexEzsBOxvwzVFTrJrxcVSXK+egnGAmp5aIerpl226aNnuR4R2k5y9ZIcqoKGW8e0bcMzJSVAT4s1ry5MqheJbJKEhWt8Wq8l1/8qq0LImPdygkEc2/8/AF9ZxxWTn0TRSXmpQPoBol/ShHBh9KLPrijGAGos8naShbcEL64r+ynSnHqmswRrFZ0qROQb17tKM2LT+imXOX0JwFy6RxYG8cxCawcjlCujE2zYg9TNwhvsmSKt4ucNXWktA797SSlbRbt0J188Bzg/DnQcHSkpkKSXC6NB7sjfGqEZStcoX3lOissPEYMHS8ISVxhVh6lfEm0lMM0XIsGyJAnNUCG5tKwpAbsVZiqlj2REqeNK7XMgt7/EKZ1ajV9wzl/PgYFWh5nHpNu0zr9t2jKyICrVHvz0YVAqheqeS24+HNY2QmTLyRIgjUpNEDDBUbsSeOoYtiUeaC+XO5rbcFJLyqQu9o7xOCxt4SodC9QcLC9MMXGOlH+rSpjWS3TV5E+kXY9RWLphHCtMsKbMFk4pPA5VdPCuR1331esEBuveZ4dbplCkmgr2WTL24HjtmTJdtCqa3YgO+dDqcoe9Oj1HfmFTr0zyN6Hi5nvTu2U3oKSmYvJjFpjMy4KeBaN2vKcOmi2LhVGxX26XCXyNQl87Z786b+DIm7+qRVz73797WSDaelTZvK8DV2usDPN5lYQh1EMDiWESx77Np7UDcrNnjUE5l7T68M2fTAAH/ZrF6ZzzKFJI2woYip8lQoIfM236baYgYlS5OjNHrJdQp/oa2YxBXB1rCrsJ0kJo+Rs5zLlCpG3Tp8KnU5lgjCw8Ol8sbGTMn9fN3W7Wfhz3Xrkgkhfz3EnvZe0TvnkzBh9FNOH8MuI2EC7wpZ4KizCLQ2bng/6W0FTv1z1lExUc7dvRcW5djRgTt/A9z5nXLUV6vPWaaQBKfw/htcFv6En0OowKcnaMef2m8tH7zrvjdGmbbHpjGS4RGRp0WzBtJhyWXsEiLKjW3/h79wX7Rm2JHoiYwXiUwevXrckX7bS5aW3MEich1Bgf7U+pNGkU+pfr4pYS8ko6glS5ZEtQ6zE9yp/JjddpnyLFNIMnpZkDAZWFp57gu7k2ZDz9Oxs49Vs/kJu5ocac17s1GtSDIhto2RJBZCDISmDT+Qyi4zpStVkEWZZHartahqkrHZMKtumdkPPKz0xB3GiXptkEnHbACLYwKIDCwjN0Ju6WYLlLhn7kgYS+tWJJkhpr8AWXZXZ01nnwev5Fibkq3BN2fp8Kw8lCihY10vT8ZE9M9V+cA8pjRKpZDYOkYqOKKcfrtAnijHage3bptrc/Dg4UPpKWe1NkWcRwAoGbuJiPxm/3/jhv4Pvll1ysSFkVnrT5VC31sC2xK8nV/u/jCrf9HLkYlXEv2a2HKMcUaAuTPnLmp2+cZN/ftT5p65ej1Esx4zEz35gmFmP9TKskwhyZMpZm1EpwYw+vmHT1/SriMPlM35oqfh2E5KQGwdI0fjEv1c6pRB0U85PH74SH1GzOEFOifv3g0zLQro1Ws3dGqzNhkRRZs2qm1tJaL0lyLk8F6JgGYBwptKT2TeiNu1aqrsnaRXFqd7jgAUNj2F5P6Dh7oNDPD3080Dt2Mspbhj1mr/wT912+PNGSxTSBC7I3ewD528/MTjfLKlSUjpHdi0XLv9nE5dMb99+06oKyTBKe1hW4OxcTa+iscH1A0NiB9fzijb32TDTRk3Q9nuX7nq2Wiyu/YdpBfCjgQ72VopiMAqEywqpUSsiCAJL4bzItoni70JyNh+yMx+yMYZOiUM3PPlzmEpFMx4Gtkk0tLGWFS4ZQoJ2ls4e2JbKCTLBmalQL83u3onLJwKtD5hOtqLN56plom3OTsIxoZFnYDsUkdQUIB6IdFSEkh4MtwVAa/MEiujicq0EUrC3t8PK3EiZPI7mwdB6mSkQD79eBH58ug/VH7dvIM+ayFnOCnTLs5jPoFr1/W9pdKISMJ6UqhAXr0sSvrW7XssV0h2GdixWqrRNszk2NDBpIYWy+M+62OtJt+579ja31/ESkmdXO5NWKv86GnZxeyDmvx9yfwZGbW6tM7bZWy02ujJtAuX5N6CZQwlI/oh47IXEnI7IrvL/584ddrlMlwtYMb3i10tQvN6zMDMWfiTZh4kYhfZpMK9VU+KFdGPY3H0+N904dIVvaI43UMEcE+cPndBt/aUKfXthRA0MW/u7LplzVm0nJ48tdY2cLrF3yXdTrohg6UKSam8+q54bugjHT6tvjlSlwYpTW9ClWLq8ReOnTfX5sDZxttlbIy0H8sZXXoNpM1iDwurRTboGQIyyYqfn35es/oGI8+fVq6XbZpl+fYfPEKHjhy3rPyNW3dJGe6WKSUXxRMeVuXLltRt76gJM0XEZnvMduo21iYZVq3drHx/jey260zTd+8/JLWElyqFnJ1Y6ZLFdJuB2cB1G7br5nM2wx7RJyjCMV0sVUjSBMWngpk9b9y6UyM+SNNKgabuyptX7Pb7dg71N7E/NdyC3XWzYUwwNt4ksBNo0LwDrd+0g9p3709/HjV/qS2CB774Ml9+eFsgdLWsyKxZo18X/3X97XvyzPmyzbI8X9+BYwxt+S7bIOznMnD4RKns2B5eVsq9945u1k1CEVq6fI1uPmcy4OGG/XLOX/jXmcttdw2WqSdMnUs9+w5Tvr+9+g6nFy+t23h18Y+rpBjkyJZZKh9C08vIoJGTyYowADC+7Td4rEwTvD6PpQoJ6FQUu+d6WjYdClPdfwbPk2WDslJwoOsPaOwYvGRAFtXu3nvwwhY7INthTFQhOUjA20H9Zh2ibJ7Vst2Xpjy4o1eH2AQdegyIftrhcb1aVRyeVzuZK4f6vRH5mvUbd0Q+NPz5nzPnacUvGwxfZ9UF8HYYPmaa6cUPFg8AGVsfuOhCeZSVCmIDMxkZMGQ8/XP6vExW6TxYbujRZygtXLqSqtRtQdt27pO+1o4ZMRvS7atBNOW7Ba+bt2HLTho5fsbrYzM/TP1uIcnYFCE67TvF3paquljhAoobsV5mKJLY5M9s+WbohCi/fWaXb6fyLFdIKhfTd5uyGghccTcdUA8BjIBlOyflogoF9afU1dqaWXjPoAzYpajJlBXu81dXawPO22FMtNoXOW3psjXU4vOeb0zB4svfuEVnOnjoaOTsLn0Ou/+AWrbrRbK+/pXKlzZUX/48cg/Fn1aucykk/fgpcwy1yx2ZlyxbHeWh5Gqd46fOISwByEi71k1lsr3OA7ugjm2avz7W+tBVPGzNWoLAEtDQ0dOiPFDbdulDeMjaxRhei0X0NOyG3ax1N2VWJHoadtbGLJBZ7FA+lHDcFzKC4GmybrrYZbdjm49liiXMnA0bO82U5TzcD2MmzqLV67dI1R0TMlmukOTJ7GOLZZtuU/4VLoivVMcsfry3aG6fzLRHKBXVisrP6qQVe/Ys6J2ZdojrtHbPfSyUomlr9C2/VRtoUgKWazAmdhe8KQ4Tb9X9h4xTbSrejpu06kpjJ8+m589d21Pm6bNn1EEsBenFLohozDvFC5GsS2DENalEbBMYyekJvGM69xwotRtp9LLAYvN2gzY2brKFwLT9oBGTXZqux1T/8LHTlYd09L47OkaArLKlSzhK0jz3SdP6UtsH4H5p8mkXOnHqjGZ5eomINNuh+wBasPTnN7LiIdup5zf0QCjh3iLYJ6Z24zaaS5+YBUKe4yddN77euft3+mrASGk8NSqXk86LjFUqvkfpg9NIXQNlC8s3+A1zVnAtljpnzFnibBFeeZ3lCgmo1Cmt/yNsNb0wEdp95mr9yHzpUyWgmb0y0YUl+Wnn+Jw0tl166tEgFTWvEEAN3vOnz2ukoP7N09DSflno5Ny8tH96bnq/UDJhS6DdA7vMjthhLLRJkTIb0q5bf+E9sUwvq5I+ffZiavhJR8KPktEfAWxBDuPPSh98TDDAlJX2IjiWM9Kofk2py6BUwFZG1nIfb5p42IOFUbFyPT96W/DAbfhxR/rr2KnoSbrH2MzwoxZd6PsF+l41EYX16Nya8IZrVGCsLDtLggdqnY/aimWImfTIiUB5mOWrWq+FpiKJN+96Tdt5hXcPlpk+aNRGajntgojpUrfJ5zRx2lzpmcnIYwmFEDYprTv2jnxa8zM8rgoVzKuZJ3oiYunIbrqJa6FsNfykE8ls4Be9rkN/HhP30+e2MEqP3jarj98S00Lq0wYm1Q632wKtrLO0N9LMGd0yUvWS7l1GWr37LrWfcMlIMy3L+9fsvOSfzNpAVa42HjYQNT9s7VQxmIFo1rgO1alZmdKlSaVaBgwi16zfSjD+lLFDiFzQh3Wq0ZABX0Q+Jf350uWrVLGW3HIACsVMzJdd26q6HkIR2f7bPmU2SXapKXpjD+xYSUa8hXA9DC5h4+CK1KlRieqIqfPiRQqoTp9DwTwgHthrft1KP65Ya6i6Jh9+QN983cXQNZEzY9bt0/a9DCmqqUVsi749O1CZ0sVJa0dezMhByVj4wyrCA0hWsHFcr65tZLMr+QqVrvXGkmfkAmBPcXjX6sinXPoM41XZ5bToFcHDqVG9mlTm3WKqAfVwT5z8+wx9N/cHh8tB0cuMfrxx1XzKlCFd9NNSx1B+Vq7dJJU3IhNeQmpVK09FCuWnuHEczwHgxWifiDaMZad1G7dHXOrU/zt/XUq4D41KjkIVNC/BDNGW1Qs187ia6BaFBI38atplWrQt1NX2mnL9xI7pqW4Zf1PK0itk1a671HGiPZSRpuUCaHi7YL0m2yJ9196D4mHwpUttgXKSPl1aZao1hQhgBhuRc+JBijdt2KA4Iyjz15/nGn6AR66rTec+ihIR+ZzeZyw9lCj6trJMlCiRj7Jx3UURCwNeR67Kns3LyEg8FdRnhkIS0W48EMu+W5xSpQqiZ0+fU1CQP4WFPSAYGO8Qs17OjFXO7FnopwWTNZWCiPq1/oeree3GbZ16e68ojGMRaA1sQ8TOskkSJaJrN0IILtkIdW+0X/AUmjZ+kOE+uVshwawelhyhKLsimTIGC8UhWHmxSJAgvmLYeeb8RcKsirPSs0sbl4LaYczqYqbKiTbgtwPfYdznKQIDlC5gx2G8SOwUQc+M3g9qDFghUSMT6fyxs4+oWm/X1lkjFefyx14NU1P7uimEFm58OlemcgRk/e6XmzR40TWZ7G7Js35YNsqXVd0l2S2NMFAJllCaf9bdwBXWZ503YxSVLF7YpYrg1oslInfIl93a0ohx2h4NO9YvpTSpjb1RySgk8G65HnLTqYe5K2yg4KxYOJUyZ0rvSjGvr4UnTc2Gzs3YvS7ExQ+F385H308ZTokTGw+j4G6FBF3FG3+33oOVWSAXu27a5WWE0jtdKHSyxqxqFeOFplbDz9SSLTsPhQbjrxeB2ZsVEsfzRxYgxYOwZgn3LpVodWPkj9epwKcnaOPv6i7BWtdrpe099oAKi5D0dlJGwN6blBHwLVG0IC2dO1HKuFBrPMxKmzvddWUEbcmYPh19/UV7s5qlWs5QsayUPWsm1fSIhEePH0d8NPV/KDlzp4906/jhR/vHeZNMU0YAJEf2zMp9iLI9IYgUOnPiEKeUEU+0F3ViRmPCiH5iqUJ7GcBd7cNS0JSx37qsjKC9mH37efF0KQN1M/uH3x/MGMVkcZtCAoitagTZiiUMXVuNvkDvdTpFizbdpqu3nqvGK9Fr+PXQ57R4UyhV6vYPNRx4jm7fD9e7xK3pdmMv2/nCwvhs4XdjpeIAyJbpTL4Fog2lSrg2MxK53ubCzqV2jYqRT5n6uW3Lj6h+7ariwZBAt1yzpoodVZQlUwaaMWGwoyTTz2FZa+WSGVJKmNHKcR+uWjqTMOvjTsFb/fdTR5BvMntEvTbSd8xEjBz0JbX9tImRy0zPC/f8iSMHkMyGe7KVQ0n8af4UwrKSOwTKCBShmC7x3NnBormSUL1SyWnFnrvurFa3roshz+ir7xAd8wr5CPffD8v6U+GcSShl8njKpnxw58XSDoz1nz1/RXdFgLPbYmO+kDvhdPLCY1q6/Q7dF8qNXQXMwd5bBV/+1T9+RytWbxRxGqaattYqwwPr9jCMxKyGmQKr/eEDv6QEYldhs0O8jx/ej6pXeV9prsyDzGp30uJif5j1K+ZQ7wGjLIuwW++DKsqsk0x/nR1HuHkvnDWWxkyaJe0B5mxdmI3p16vT63F0thxPX4f7vEenVtSgTlXFCwmGvO6UAb07U+MGtVSNSV1pS3C61MpsHLzbrIoVgoB+w77pSbJRZV3pjx2udatCgg53Ei60dlNIIg/Ek/BXtGBLqPIX+bw3fwZzbxf8sMG7pVqlsjRr3g/ScSic7TfsEL7p3YU+qF7BUHh4I/XB4n5Qvx5iSSCLEtDJ1ZkKWMFPGvUN5cmV7XUz/Hz136xdrfd1ZRofsmbOQEvmjBdxNlYqSqVGVkNJcOHE8pfVW79HNApLEb17tKOmjWorLtbLLNgvCN5B3Tp+6pLhdER77fI/FPopY74VHlN/KeNvRuwRrb5hVqRfr45OeZtolRs9DRtmjhn6NTX/qI7idi+z5UT0MtSOe3dvRx83qavqbaR2nTefd7tCki04IXWuk5ImrgzxZm5e03awBvOYItixtWv7lvRh3eqKK+jGLb9pBl8y2m9MyTduUJOqVizjljV7xMj4pEk95U0YgcOMuraifzB4/LRZA6rwfqk3frx8JTb/g9eOOwRKZQsRcKxSuXcVt9Dlv/yqa6Cn1i4oph+IJa/yZUpapjCq1Y3zGYLTEmx02oilsQVLfqZN23a5ZLyLN+Hqld+nioKN2bNxAf5+bp1V1OKGMOzLhMHxtp17lU0yN4jvr1kKMV4i6n9QlTBbFlkp12qPWWn43cASzsatv9EvIoKw4eCE/zUELxXoQ+2alTTDFpjVbiPlJBZeYlaL29x+o3ekfNe/6fTVp9FP87GJBLKnTUhbRXC3mC5wD4XbHKaDjboa4kcMP5KFCuRRHgYyRqBW8sSP897fD9NW8YN98PBRgltg9B/sCHfIzJmCCREnC+TLZWWTHJYt42UDpWHCyP4Or8dJhEA6duIf+nXzDhFA6hz9e+WaQ3dK/EinCAqknGIztHJl3qESxQoRduW1m2ADyL37D9PufX8ofbl1O9RhjBv0J23qlMrbe8F8uamcMLjUipljt36a2R7EFMFu0AimhlgzRmPpwG4I31+404KjXe6Lx4+f0O79f9C2HXvprAg1cPXaDYd9w3cZyi32uaoqvi96M32tOnxFv4nfOi1x1stGq0x3pXlMIdlyMIxajLzgrn7Gynrm9spEFQyEwY8JkMLDw0WMjnvKrpt4IOCBjj/EIMFMQHK/ZMJAMJmYDk8qDNLSKz8GzkTydCcruFDevRemVBkoYlqoBVdyZ5vMUEjU2ougdbBrQbA2zIh5syAKbpjozyPxgIoJ/bF6LLCz7S3xfUWwwptQ6G7foRtiT5xXr14q31vl+yvuC8TxyCke4t52f6B/+C1Cu40GIwT7mK6QuH3JJuKGxoOyddUgmvXrrYhT/L+JBMA2tikjwAfLfhgf4i+mCOwWYlJ/9MYFP9TO/FjrleuJdCiP/sn9lD9P1O9tdSZLmoTwZ1YMGbv1P6J/dmuXXdrjVrff6J0e8GlaW2y8F71d3n6MDfTAloUJMAEmwASYgLcQ8KhCAkjD26RT3Gm9BZjd2wnXZDBlYQJMgAkwASbgTQQ8rpAgeujY9uaEePYm8Fa1FSy9LSKrVSy4XCbABJgAE/AeAh5XSICqvghE1iMGxMrw9LCDIViyMAEmwASYABPwNgK2UEgArWvDVPRxhZhjiOjuGwHswJCFCTABJsAEmIA3ErCNQgJ4Q9qmo7oizDmLMQJgBnYsTIAJMAEmwAS8lYCtFBJAnNg1g612Bbb7wGIXXzBjYQJMgAkwASbgzQRsp5AA5rQeGXmmROKuwswIWLEwASbABJgAE/B2ArZUSAAVb/1sU6J+e4ENz4yo8+EUJsAEmAAT8C4CtlVIgBF2Eex98+YNBSZsM/ImFz7DBJgAE2AC3kvA1goJsMJzZHyH9Bw8TbBA0DOwYG8a7/3CccuZABNgAkzAMQHbKyRoNmJrrB2aLVaHmUc4eDDgOCOOb2Q+ywSYABNgAt5NwCsUEiBG9NE1I7IrG/J5N3LjrcdGeeg7R2A1zo6vYAJMgAkwAe8g4LHdfp3Fg03jShdISkMWXqPTV586W4xXXJc9bULq0yxNrNy11ysGiBvJBJgAE2ACphHwmhmSyD2uUNSXto7PSZ3rpIx8OkZ9Rt/QR/SVhQkwASbABJhATCfgdTMkkQekZ5PUVLeMP01adoNW7LkbOclrP9cTsUU6CS+abMEJvbYP3HAmwASYABNgAkYJeLVCgs7iwT1BxCxpXjWQZq+9RWv23zPKwBb5EXG1VY0gKporiS3aw41gAkyACTABJuBOAl6vkETAwoMcfx3OPqKFG0Np0bbQiCRb/9+0XAA1qxzABqu2HiVuHBNgAkzA8wSC06b2fCMsbMFbr4RYWL7Hir5z/wUt3x5KK3fdpSPnH3usHY4qhgtvndLJqf77AeSfLK6jLHyOCdiawIsXL+h2qPYyacIECcjPL5mt+8GNYwLeRCA8PJxC72ivAgQG+lPcOF5pHkoxViGJfJOdOP+ENh64R5v/CPOYcgIlpGIRX6pczI/yZPaJ3Dz+zASYABNgAkwg1hOIFQpJ5FG+dus57Tn+gA6ceEiHTj+ik5efRE427XPuYB8qnD0xFcuThErlTUppguKbVjYXxASYABNgAkwgphGIdQpJ9AF89OQlnbjwmM5eeUoXrz+jyzef0bXQ53Q7LJzuPnhBD0X6k+cv6eV/C1sI3+4TPw4l8YlDyZPGpUDfeJQmID4Fp0hAGVMnoKzpElKeTIkosUhnYQJMgAkwASbABOQIxHqFRA4T52ICTIAJMAEmwASsJMCv8VbS5bKZABNgAkyACTABKQKskEhh4kxMgAkwASbABJiAlQRYIbGSLpfNBJgAE2ACTIAJSBFghUQKE2diAkyACTABJsAErCTAComVdLlsJsAEmAATYAJMQIoAKyRSmDgTE2ACTIAJMAEmYCUBVkispMtlMwEmwASYABNgAlIEWCGRwsSZmAATYAJMgAkwASsJsEJiJV0umwkwASbABJgAE5AiwAqJFCbOxASYABNgAkyACVhJgBUSK+ly2UyACTABJsAEmIAUAVZIpDBxJibABJgAE2ACTMBKAqyQWEmXy2YCTIAJMAEmwASkCLBCIoWJMzEBJsAEmAATYAJWEmCFxEq6XDYTYAJMgAkwASYgRYAVEilMnIkJMAEmwASYABOwkgArJFbS5bKZABNgAkyACTABKQL/B2k7ztazDc3AAAAAAElFTkSuQmCC;" vertex="1" parent="1">
          <mxGeometry x="2707.23" y="2252.53" width="109.09" height="27.47" as="geometry" />
        </mxCell>
      </root>
    </mxGraphModel>
  </diagram>
</mxfile>
